%FSLAX45Y45*%
G04 Gerber Fmt 4.5, Leading zero omitted, Abs format (unit mm)*
G04 Created by KiCad (PCBNEW (2015-04-14 BZR 5600)-product) date Fri 15 May 2015 04:46:55 PM CEST*
%MOMM*%
G01*
G04 APERTURE LIST*
%ADD10C,0.127000*%
%ADD11C,0.100000*%
%ADD12C,0.200000*%
%ADD13C,0.300000*%
G04 APERTURE END LIST*
D10*
D11*
X23500000Y-5000000D02*
X3500000Y-5000000D01*
X23500000Y-15000000D02*
X23500000Y-5000000D01*
X3500000Y-15000000D02*
X23500000Y-15000000D01*
X3500000Y-5000000D02*
X3500000Y-15000000D01*
D12*
X12426000Y-6076000D02*
X12466000Y-6116000D01*
X12466000Y-6076000D02*
X12426000Y-6116000D01*
X13950000Y-11664000D02*
X13990000Y-11704000D01*
X13990000Y-11664000D02*
X13950000Y-11704000D01*
X15601000Y-10140000D02*
X15641000Y-10180000D01*
X15641000Y-10140000D02*
X15601000Y-10180000D01*
X15855000Y-9378000D02*
X15895000Y-9418000D01*
X15895000Y-9378000D02*
X15855000Y-9418000D01*
X4358640Y-9906000D02*
G75*
G03X4358640Y-9906000I-40640J0D01*
G01*
X4358640Y-10160000D02*
G75*
G03X4358640Y-10160000I-40640J0D01*
G01*
X4993640Y-9906000D02*
G75*
G03X4993640Y-9906000I-40640J0D01*
G01*
X4993640Y-10160000D02*
G75*
G03X4993640Y-10160000I-40640J0D01*
G01*
X5628640Y-9652000D02*
G75*
G03X5628640Y-9652000I-40640J0D01*
G01*
X5628640Y-10414000D02*
G75*
G03X5628640Y-10414000I-40640J0D01*
G01*
X5882640Y-9652000D02*
G75*
G03X5882640Y-9652000I-40640J0D01*
G01*
X5882640Y-10414000D02*
G75*
G03X5882640Y-10414000I-40640J0D01*
G01*
X5882640Y-10668000D02*
G75*
G03X5882640Y-10668000I-40640J0D01*
G01*
X5882640Y-10922000D02*
G75*
G03X5882640Y-10922000I-40640J0D01*
G01*
X5882640Y-11176000D02*
G75*
G03X5882640Y-11176000I-40640J0D01*
G01*
X6136640Y-8890000D02*
G75*
G03X6136640Y-8890000I-40640J0D01*
G01*
X6136640Y-9144000D02*
G75*
G03X6136640Y-9144000I-40640J0D01*
G01*
X6136640Y-9398000D02*
G75*
G03X6136640Y-9398000I-40640J0D01*
G01*
X6136640Y-9652000D02*
G75*
G03X6136640Y-9652000I-40640J0D01*
G01*
X6136640Y-10414000D02*
G75*
G03X6136640Y-10414000I-40640J0D01*
G01*
X6390640Y-9652000D02*
G75*
G03X6390640Y-9652000I-40640J0D01*
G01*
X6390640Y-10414000D02*
G75*
G03X6390640Y-10414000I-40640J0D01*
G01*
X6390640Y-10668000D02*
G75*
G03X6390640Y-10668000I-40640J0D01*
G01*
X6390640Y-10922000D02*
G75*
G03X6390640Y-10922000I-40640J0D01*
G01*
X6390640Y-11176000D02*
G75*
G03X6390640Y-11176000I-40640J0D01*
G01*
X6644640Y-7366000D02*
G75*
G03X6644640Y-7366000I-40640J0D01*
G01*
X6644640Y-7620000D02*
G75*
G03X6644640Y-7620000I-40640J0D01*
G01*
X6644640Y-7874000D02*
G75*
G03X6644640Y-7874000I-40640J0D01*
G01*
X6644640Y-8890000D02*
G75*
G03X6644640Y-8890000I-40640J0D01*
G01*
X6644640Y-9144000D02*
G75*
G03X6644640Y-9144000I-40640J0D01*
G01*
X6644640Y-9398000D02*
G75*
G03X6644640Y-9398000I-40640J0D01*
G01*
X6644640Y-9652000D02*
G75*
G03X6644640Y-9652000I-40640J0D01*
G01*
X6644640Y-10414000D02*
G75*
G03X6644640Y-10414000I-40640J0D01*
G01*
X6644640Y-12192000D02*
G75*
G03X6644640Y-12192000I-40640J0D01*
G01*
X6644640Y-12446000D02*
G75*
G03X6644640Y-12446000I-40640J0D01*
G01*
X6644640Y-12700000D02*
G75*
G03X6644640Y-12700000I-40640J0D01*
G01*
X6898640Y-9652000D02*
G75*
G03X6898640Y-9652000I-40640J0D01*
G01*
X6898640Y-10414000D02*
G75*
G03X6898640Y-10414000I-40640J0D01*
G01*
X6898640Y-10668000D02*
G75*
G03X6898640Y-10668000I-40640J0D01*
G01*
X6898640Y-10922000D02*
G75*
G03X6898640Y-10922000I-40640J0D01*
G01*
X6898640Y-11176000D02*
G75*
G03X6898640Y-11176000I-40640J0D01*
G01*
X7152640Y-8890000D02*
G75*
G03X7152640Y-8890000I-40640J0D01*
G01*
X7152640Y-9144000D02*
G75*
G03X7152640Y-9144000I-40640J0D01*
G01*
X7152640Y-9398000D02*
G75*
G03X7152640Y-9398000I-40640J0D01*
G01*
X7152640Y-9652000D02*
G75*
G03X7152640Y-9652000I-40640J0D01*
G01*
X7152640Y-10414000D02*
G75*
G03X7152640Y-10414000I-40640J0D01*
G01*
X7660640Y-7366000D02*
G75*
G03X7660640Y-7366000I-40640J0D01*
G01*
X7660640Y-7620000D02*
G75*
G03X7660640Y-7620000I-40640J0D01*
G01*
X7660640Y-7874000D02*
G75*
G03X7660640Y-7874000I-40640J0D01*
G01*
X7660640Y-12192000D02*
G75*
G03X7660640Y-12192000I-40640J0D01*
G01*
X7660640Y-12446000D02*
G75*
G03X7660640Y-12446000I-40640J0D01*
G01*
X7660640Y-12700000D02*
G75*
G03X7660640Y-12700000I-40640J0D01*
G01*
X8930640Y-5334000D02*
G75*
G03X8930640Y-5334000I-40640J0D01*
G01*
X8930640Y-6350000D02*
G75*
G03X8930640Y-6350000I-40640J0D01*
G01*
X8930640Y-11049000D02*
G75*
G03X8930640Y-11049000I-40640J0D01*
G01*
X8930640Y-11303000D02*
G75*
G03X8930640Y-11303000I-40640J0D01*
G01*
X9311640Y-14478000D02*
G75*
G03X9311640Y-14478000I-40640J0D01*
G01*
X9438640Y-6604000D02*
G75*
G03X9438640Y-6604000I-40640J0D01*
G01*
X9438640Y-6858000D02*
G75*
G03X9438640Y-6858000I-40640J0D01*
G01*
X9565640Y-12954000D02*
G75*
G03X9565640Y-12954000I-40640J0D01*
G01*
X9565640Y-13208000D02*
G75*
G03X9565640Y-13208000I-40640J0D01*
G01*
X9946640Y-6350000D02*
G75*
G03X9946640Y-6350000I-40640J0D01*
G01*
X9946640Y-7112000D02*
G75*
G03X9946640Y-7112000I-40640J0D01*
G01*
X9946640Y-9144000D02*
G75*
G03X9946640Y-9144000I-40640J0D01*
G01*
X9946640Y-9906000D02*
G75*
G03X9946640Y-9906000I-40640J0D01*
G01*
X9946640Y-11049000D02*
G75*
G03X9946640Y-11049000I-40640J0D01*
G01*
X9946640Y-11303000D02*
G75*
G03X9946640Y-11303000I-40640J0D01*
G01*
X10073640Y-8509000D02*
G75*
G03X10073640Y-8509000I-40640J0D01*
G01*
X10073640Y-12700000D02*
G75*
G03X10073640Y-12700000I-40640J0D01*
G01*
X10073640Y-13462000D02*
G75*
G03X10073640Y-13462000I-40640J0D01*
G01*
X10200640Y-6350000D02*
G75*
G03X10200640Y-6350000I-40640J0D01*
G01*
X10200640Y-7112000D02*
G75*
G03X10200640Y-7112000I-40640J0D01*
G01*
X10200640Y-9144000D02*
G75*
G03X10200640Y-9144000I-40640J0D01*
G01*
X10200640Y-9906000D02*
G75*
G03X10200640Y-9906000I-40640J0D01*
G01*
X10327640Y-12700000D02*
G75*
G03X10327640Y-12700000I-40640J0D01*
G01*
X10327640Y-13462000D02*
G75*
G03X10327640Y-13462000I-40640J0D01*
G01*
X10327640Y-14478000D02*
G75*
G03X10327640Y-14478000I-40640J0D01*
G01*
X10454640Y-6350000D02*
G75*
G03X10454640Y-6350000I-40640J0D01*
G01*
X10454640Y-7112000D02*
G75*
G03X10454640Y-7112000I-40640J0D01*
G01*
X10454640Y-9144000D02*
G75*
G03X10454640Y-9144000I-40640J0D01*
G01*
X10454640Y-9906000D02*
G75*
G03X10454640Y-9906000I-40640J0D01*
G01*
X10581640Y-11049000D02*
G75*
G03X10581640Y-11049000I-40640J0D01*
G01*
X10581640Y-11303000D02*
G75*
G03X10581640Y-11303000I-40640J0D01*
G01*
X10581640Y-12700000D02*
G75*
G03X10581640Y-12700000I-40640J0D01*
G01*
X10581640Y-13462000D02*
G75*
G03X10581640Y-13462000I-40640J0D01*
G01*
X10708640Y-6350000D02*
G75*
G03X10708640Y-6350000I-40640J0D01*
G01*
X10708640Y-7112000D02*
G75*
G03X10708640Y-7112000I-40640J0D01*
G01*
X10708640Y-9144000D02*
G75*
G03X10708640Y-9144000I-40640J0D01*
G01*
X10708640Y-9906000D02*
G75*
G03X10708640Y-9906000I-40640J0D01*
G01*
X10835640Y-12700000D02*
G75*
G03X10835640Y-12700000I-40640J0D01*
G01*
X10835640Y-13462000D02*
G75*
G03X10835640Y-13462000I-40640J0D01*
G01*
X10962640Y-6350000D02*
G75*
G03X10962640Y-6350000I-40640J0D01*
G01*
X10962640Y-7112000D02*
G75*
G03X10962640Y-7112000I-40640J0D01*
G01*
X10962640Y-9144000D02*
G75*
G03X10962640Y-9144000I-40640J0D01*
G01*
X10962640Y-9906000D02*
G75*
G03X10962640Y-9906000I-40640J0D01*
G01*
X11089640Y-8509000D02*
G75*
G03X11089640Y-8509000I-40640J0D01*
G01*
X11089640Y-12700000D02*
G75*
G03X11089640Y-12700000I-40640J0D01*
G01*
X11089640Y-13462000D02*
G75*
G03X11089640Y-13462000I-40640J0D01*
G01*
X11216640Y-6350000D02*
G75*
G03X11216640Y-6350000I-40640J0D01*
G01*
X11216640Y-7112000D02*
G75*
G03X11216640Y-7112000I-40640J0D01*
G01*
X11216640Y-9144000D02*
G75*
G03X11216640Y-9144000I-40640J0D01*
G01*
X11216640Y-9906000D02*
G75*
G03X11216640Y-9906000I-40640J0D01*
G01*
X11343640Y-12700000D02*
G75*
G03X11343640Y-12700000I-40640J0D01*
G01*
X11343640Y-13462000D02*
G75*
G03X11343640Y-13462000I-40640J0D01*
G01*
X11470640Y-5334000D02*
G75*
G03X11470640Y-5334000I-40640J0D01*
G01*
X11470640Y-6350000D02*
G75*
G03X11470640Y-6350000I-40640J0D01*
G01*
X11470640Y-7112000D02*
G75*
G03X11470640Y-7112000I-40640J0D01*
G01*
X11470640Y-8509000D02*
G75*
G03X11470640Y-8509000I-40640J0D01*
G01*
X11470640Y-9144000D02*
G75*
G03X11470640Y-9144000I-40640J0D01*
G01*
X11470640Y-9906000D02*
G75*
G03X11470640Y-9906000I-40640J0D01*
G01*
X11597640Y-11049000D02*
G75*
G03X11597640Y-11049000I-40640J0D01*
G01*
X11597640Y-11303000D02*
G75*
G03X11597640Y-11303000I-40640J0D01*
G01*
X11597640Y-12700000D02*
G75*
G03X11597640Y-12700000I-40640J0D01*
G01*
X11597640Y-13462000D02*
G75*
G03X11597640Y-13462000I-40640J0D01*
G01*
X11724640Y-6350000D02*
G75*
G03X11724640Y-6350000I-40640J0D01*
G01*
X11724640Y-7112000D02*
G75*
G03X11724640Y-7112000I-40640J0D01*
G01*
X11724640Y-9144000D02*
G75*
G03X11724640Y-9144000I-40640J0D01*
G01*
X11724640Y-9906000D02*
G75*
G03X11724640Y-9906000I-40640J0D01*
G01*
X11851640Y-12700000D02*
G75*
G03X11851640Y-12700000I-40640J0D01*
G01*
X11851640Y-13462000D02*
G75*
G03X11851640Y-13462000I-40640J0D01*
G01*
X12232640Y-9144000D02*
G75*
G03X12232640Y-9144000I-40640J0D01*
G01*
X12486640Y-5334000D02*
G75*
G03X12486640Y-5334000I-40640J0D01*
G01*
X12486640Y-8509000D02*
G75*
G03X12486640Y-8509000I-40640J0D01*
G01*
X12486640Y-9144000D02*
G75*
G03X12486640Y-9144000I-40640J0D01*
G01*
X12994640Y-5842000D02*
G75*
G03X12994640Y-5842000I-40640J0D01*
G01*
X12994640Y-6858000D02*
G75*
G03X12994640Y-6858000I-40640J0D01*
G01*
X13248640Y-5334000D02*
G75*
G03X13248640Y-5334000I-40640J0D01*
G01*
X13502640Y-13462000D02*
G75*
G03X13502640Y-13462000I-40640J0D01*
G01*
X13502640Y-13716000D02*
G75*
G03X13502640Y-13716000I-40640J0D01*
G01*
X13502640Y-13970000D02*
G75*
G03X13502640Y-13970000I-40640J0D01*
G01*
X13502640Y-14224000D02*
G75*
G03X13502640Y-14224000I-40640J0D01*
G01*
X13629640Y-10668000D02*
G75*
G03X13629640Y-10668000I-40640J0D01*
G01*
X13629640Y-10922000D02*
G75*
G03X13629640Y-10922000I-40640J0D01*
G01*
X13629640Y-11176000D02*
G75*
G03X13629640Y-11176000I-40640J0D01*
G01*
X13756640Y-5842000D02*
G75*
G03X13756640Y-5842000I-40640J0D01*
G01*
X13756640Y-6604000D02*
G75*
G03X13756640Y-6604000I-40640J0D01*
G01*
X13756640Y-7112000D02*
G75*
G03X13756640Y-7112000I-40640J0D01*
G01*
X13756640Y-7874000D02*
G75*
G03X13756640Y-7874000I-40640J0D01*
G01*
X13883640Y-9652000D02*
G75*
G03X13883640Y-9652000I-40640J0D01*
G01*
X13883640Y-9906000D02*
G75*
G03X13883640Y-9906000I-40640J0D01*
G01*
X14010640Y-12065000D02*
G75*
G03X14010640Y-12065000I-40640J0D01*
G01*
X14010640Y-12954000D02*
G75*
G03X14010640Y-12954000I-40640J0D01*
G01*
X14264640Y-5334000D02*
G75*
G03X14264640Y-5334000I-40640J0D01*
G01*
X14264640Y-5842000D02*
G75*
G03X14264640Y-5842000I-40640J0D01*
G01*
X14264640Y-6604000D02*
G75*
G03X14264640Y-6604000I-40640J0D01*
G01*
X14264640Y-7112000D02*
G75*
G03X14264640Y-7112000I-40640J0D01*
G01*
X14264640Y-7874000D02*
G75*
G03X14264640Y-7874000I-40640J0D01*
G01*
X14264640Y-12065000D02*
G75*
G03X14264640Y-12065000I-40640J0D01*
G01*
X14264640Y-12954000D02*
G75*
G03X14264640Y-12954000I-40640J0D01*
G01*
X14391640Y-9398000D02*
G75*
G03X14391640Y-9398000I-40640J0D01*
G01*
X14391640Y-10160000D02*
G75*
G03X14391640Y-10160000I-40640J0D01*
G01*
X14518640Y-12065000D02*
G75*
G03X14518640Y-12065000I-40640J0D01*
G01*
X14518640Y-12954000D02*
G75*
G03X14518640Y-12954000I-40640J0D01*
G01*
X14518640Y-13462000D02*
G75*
G03X14518640Y-13462000I-40640J0D01*
G01*
X14518640Y-13716000D02*
G75*
G03X14518640Y-13716000I-40640J0D01*
G01*
X14518640Y-13970000D02*
G75*
G03X14518640Y-13970000I-40640J0D01*
G01*
X14518640Y-14224000D02*
G75*
G03X14518640Y-14224000I-40640J0D01*
G01*
X14645640Y-9398000D02*
G75*
G03X14645640Y-9398000I-40640J0D01*
G01*
X14645640Y-10160000D02*
G75*
G03X14645640Y-10160000I-40640J0D01*
G01*
X14645640Y-10668000D02*
G75*
G03X14645640Y-10668000I-40640J0D01*
G01*
X14645640Y-10922000D02*
G75*
G03X14645640Y-10922000I-40640J0D01*
G01*
X14645640Y-11176000D02*
G75*
G03X14645640Y-11176000I-40640J0D01*
G01*
X14772640Y-12065000D02*
G75*
G03X14772640Y-12065000I-40640J0D01*
G01*
X14772640Y-12954000D02*
G75*
G03X14772640Y-12954000I-40640J0D01*
G01*
X14899640Y-9398000D02*
G75*
G03X14899640Y-9398000I-40640J0D01*
G01*
X14899640Y-10160000D02*
G75*
G03X14899640Y-10160000I-40640J0D01*
G01*
X15026640Y-12065000D02*
G75*
G03X15026640Y-12065000I-40640J0D01*
G01*
X15026640Y-12954000D02*
G75*
G03X15026640Y-12954000I-40640J0D01*
G01*
X15153640Y-9398000D02*
G75*
G03X15153640Y-9398000I-40640J0D01*
G01*
X15153640Y-10160000D02*
G75*
G03X15153640Y-10160000I-40640J0D01*
G01*
X15280640Y-12065000D02*
G75*
G03X15280640Y-12065000I-40640J0D01*
G01*
X15280640Y-12954000D02*
G75*
G03X15280640Y-12954000I-40640J0D01*
G01*
X15407640Y-9398000D02*
G75*
G03X15407640Y-9398000I-40640J0D01*
G01*
X15407640Y-10160000D02*
G75*
G03X15407640Y-10160000I-40640J0D01*
G01*
X15534640Y-12065000D02*
G75*
G03X15534640Y-12065000I-40640J0D01*
G01*
X15534640Y-12954000D02*
G75*
G03X15534640Y-12954000I-40640J0D01*
G01*
X15661640Y-9398000D02*
G75*
G03X15661640Y-9398000I-40640J0D01*
G01*
X15661640Y-10160000D02*
G75*
G03X15661640Y-10160000I-40640J0D01*
G01*
X15788640Y-12065000D02*
G75*
G03X15788640Y-12065000I-40640J0D01*
G01*
X15788640Y-12954000D02*
G75*
G03X15788640Y-12954000I-40640J0D01*
G01*
X15788640Y-13462000D02*
G75*
G03X15788640Y-13462000I-40640J0D01*
G01*
X15788640Y-14478000D02*
G75*
G03X15788640Y-14478000I-40640J0D01*
G01*
X15915640Y-9398000D02*
G75*
G03X15915640Y-9398000I-40640J0D01*
G01*
X15915640Y-10160000D02*
G75*
G03X15915640Y-10160000I-40640J0D01*
G01*
X16042640Y-12065000D02*
G75*
G03X16042640Y-12065000I-40640J0D01*
G01*
X16042640Y-12954000D02*
G75*
G03X16042640Y-12954000I-40640J0D01*
G01*
X16169640Y-9398000D02*
G75*
G03X16169640Y-9398000I-40640J0D01*
G01*
X16169640Y-10160000D02*
G75*
G03X16169640Y-10160000I-40640J0D01*
G01*
X16741140Y-5905500D02*
G75*
G03X16741140Y-5905500I-40640J0D01*
G01*
X16741140Y-6159500D02*
G75*
G03X16741140Y-6159500I-40640J0D01*
G01*
X16741140Y-6413500D02*
G75*
G03X16741140Y-6413500I-40640J0D01*
G01*
X16931640Y-12573000D02*
G75*
G03X16931640Y-12573000I-40640J0D01*
G01*
X16931640Y-12827000D02*
G75*
G03X16931640Y-12827000I-40640J0D01*
G01*
X16931640Y-13208000D02*
G75*
G03X16931640Y-13208000I-40640J0D01*
G01*
X17122140Y-6794500D02*
G75*
G03X17122140Y-6794500I-40640J0D01*
G01*
X17122140Y-7048500D02*
G75*
G03X17122140Y-7048500I-40640J0D01*
G01*
X17185640Y-13208000D02*
G75*
G03X17185640Y-13208000I-40640J0D01*
G01*
X17249140Y-7429500D02*
G75*
G03X17249140Y-7429500I-40640J0D01*
G01*
X17249140Y-7683500D02*
G75*
G03X17249140Y-7683500I-40640J0D01*
G01*
X17249140Y-7937500D02*
G75*
G03X17249140Y-7937500I-40640J0D01*
G01*
X17249140Y-8191500D02*
G75*
G03X17249140Y-8191500I-40640J0D01*
G01*
X17439640Y-9652000D02*
G75*
G03X17439640Y-9652000I-40640J0D01*
G01*
X17439640Y-10414000D02*
G75*
G03X17439640Y-10414000I-40640J0D01*
G01*
X17503140Y-5524500D02*
G75*
G03X17503140Y-5524500I-40640J0D01*
G01*
X17566640Y-13208000D02*
G75*
G03X17566640Y-13208000I-40640J0D01*
G01*
X17693640Y-9652000D02*
G75*
G03X17693640Y-9652000I-40640J0D01*
G01*
X17693640Y-10414000D02*
G75*
G03X17693640Y-10414000I-40640J0D01*
G01*
X17757140Y-5905500D02*
G75*
G03X17757140Y-5905500I-40640J0D01*
G01*
X17757140Y-6159500D02*
G75*
G03X17757140Y-6159500I-40640J0D01*
G01*
X17757140Y-6413500D02*
G75*
G03X17757140Y-6413500I-40640J0D01*
G01*
X17820640Y-13208000D02*
G75*
G03X17820640Y-13208000I-40640J0D01*
G01*
X17884140Y-6794500D02*
G75*
G03X17884140Y-6794500I-40640J0D01*
G01*
X17884140Y-7048500D02*
G75*
G03X17884140Y-7048500I-40640J0D01*
G01*
X17947640Y-9652000D02*
G75*
G03X17947640Y-9652000I-40640J0D01*
G01*
X17947640Y-10414000D02*
G75*
G03X17947640Y-10414000I-40640J0D01*
G01*
X17947640Y-11811000D02*
G75*
G03X17947640Y-11811000I-40640J0D01*
G01*
X17947640Y-12065000D02*
G75*
G03X17947640Y-12065000I-40640J0D01*
G01*
X17947640Y-12573000D02*
G75*
G03X17947640Y-12573000I-40640J0D01*
G01*
X17947640Y-12827000D02*
G75*
G03X17947640Y-12827000I-40640J0D01*
G01*
X18201640Y-9652000D02*
G75*
G03X18201640Y-9652000I-40640J0D01*
G01*
X18201640Y-10414000D02*
G75*
G03X18201640Y-10414000I-40640J0D01*
G01*
X18201640Y-12954000D02*
G75*
G03X18201640Y-12954000I-40640J0D01*
G01*
X18265140Y-7429500D02*
G75*
G03X18265140Y-7429500I-40640J0D01*
G01*
X18265140Y-7683500D02*
G75*
G03X18265140Y-7683500I-40640J0D01*
G01*
X18265140Y-7937500D02*
G75*
G03X18265140Y-7937500I-40640J0D01*
G01*
X18265140Y-8191500D02*
G75*
G03X18265140Y-8191500I-40640J0D01*
G01*
X18455640Y-9652000D02*
G75*
G03X18455640Y-9652000I-40640J0D01*
G01*
X18455640Y-10414000D02*
G75*
G03X18455640Y-10414000I-40640J0D01*
G01*
X18455640Y-11557000D02*
G75*
G03X18455640Y-11557000I-40640J0D01*
G01*
X18455640Y-12319000D02*
G75*
G03X18455640Y-12319000I-40640J0D01*
G01*
X18455640Y-12954000D02*
G75*
G03X18455640Y-12954000I-40640J0D01*
G01*
X18519140Y-5524500D02*
G75*
G03X18519140Y-5524500I-40640J0D01*
G01*
X18519140Y-5905500D02*
G75*
G03X18519140Y-5905500I-40640J0D01*
G01*
X18519140Y-6159500D02*
G75*
G03X18519140Y-6159500I-40640J0D01*
G01*
X18709640Y-9652000D02*
G75*
G03X18709640Y-9652000I-40640J0D01*
G01*
X18709640Y-10414000D02*
G75*
G03X18709640Y-10414000I-40640J0D01*
G01*
X18709640Y-11557000D02*
G75*
G03X18709640Y-11557000I-40640J0D01*
G01*
X18709640Y-12319000D02*
G75*
G03X18709640Y-12319000I-40640J0D01*
G01*
X18773140Y-7366000D02*
G75*
G03X18773140Y-7366000I-40640J0D01*
G01*
X18963640Y-9652000D02*
G75*
G03X18963640Y-9652000I-40640J0D01*
G01*
X18963640Y-10414000D02*
G75*
G03X18963640Y-10414000I-40640J0D01*
G01*
X18963640Y-11557000D02*
G75*
G03X18963640Y-11557000I-40640J0D01*
G01*
X18963640Y-12319000D02*
G75*
G03X18963640Y-12319000I-40640J0D01*
G01*
X19027140Y-7112000D02*
G75*
G03X19027140Y-7112000I-40640J0D01*
G01*
X19027140Y-7366000D02*
G75*
G03X19027140Y-7366000I-40640J0D01*
G01*
X19217640Y-11557000D02*
G75*
G03X19217640Y-11557000I-40640J0D01*
G01*
X19217640Y-12319000D02*
G75*
G03X19217640Y-12319000I-40640J0D01*
G01*
X19471640Y-9906000D02*
G75*
G03X19471640Y-9906000I-40640J0D01*
G01*
X19471640Y-10160000D02*
G75*
G03X19471640Y-10160000I-40640J0D01*
G01*
X19471640Y-11557000D02*
G75*
G03X19471640Y-11557000I-40640J0D01*
G01*
X19471640Y-12319000D02*
G75*
G03X19471640Y-12319000I-40640J0D01*
G01*
X19725640Y-11557000D02*
G75*
G03X19725640Y-11557000I-40640J0D01*
G01*
X19725640Y-12319000D02*
G75*
G03X19725640Y-12319000I-40640J0D01*
G01*
X19852640Y-6096000D02*
G75*
G03X19852640Y-6096000I-40640J0D01*
G01*
X19852640Y-6604000D02*
G75*
G03X19852640Y-6604000I-40640J0D01*
G01*
X19852640Y-7112000D02*
G75*
G03X19852640Y-7112000I-40640J0D01*
G01*
X19979640Y-11557000D02*
G75*
G03X19979640Y-11557000I-40640J0D01*
G01*
X19979640Y-12319000D02*
G75*
G03X19979640Y-12319000I-40640J0D01*
G01*
X20233640Y-5842000D02*
G75*
G03X20233640Y-5842000I-40640J0D01*
G01*
X20233640Y-6350000D02*
G75*
G03X20233640Y-6350000I-40640J0D01*
G01*
X20233640Y-6858000D02*
G75*
G03X20233640Y-6858000I-40640J0D01*
G01*
X20233640Y-13462000D02*
G75*
G03X20233640Y-13462000I-40640J0D01*
G01*
X20233640Y-13716000D02*
G75*
G03X20233640Y-13716000I-40640J0D01*
G01*
X20360640Y-8382000D02*
G75*
G03X20360640Y-8382000I-40640J0D01*
G01*
X20360640Y-8636000D02*
G75*
G03X20360640Y-8636000I-40640J0D01*
G01*
X20360640Y-8890000D02*
G75*
G03X20360640Y-8890000I-40640J0D01*
G01*
X20360640Y-9144000D02*
G75*
G03X20360640Y-9144000I-40640J0D01*
G01*
X20487640Y-5842000D02*
G75*
G03X20487640Y-5842000I-40640J0D01*
G01*
X20487640Y-6350000D02*
G75*
G03X20487640Y-6350000I-40640J0D01*
G01*
X20487640Y-6858000D02*
G75*
G03X20487640Y-6858000I-40640J0D01*
G01*
X20487640Y-10160000D02*
G75*
G03X20487640Y-10160000I-40640J0D01*
G01*
X20487640Y-10795000D02*
G75*
G03X20487640Y-10795000I-40640J0D01*
G01*
X20614640Y-13208000D02*
G75*
G03X20614640Y-13208000I-40640J0D01*
G01*
X20614640Y-14097000D02*
G75*
G03X20614640Y-14097000I-40640J0D01*
G01*
X20614640Y-14351000D02*
G75*
G03X20614640Y-14351000I-40640J0D01*
G01*
X20741640Y-10160000D02*
G75*
G03X20741640Y-10160000I-40640J0D01*
G01*
X20741640Y-10795000D02*
G75*
G03X20741640Y-10795000I-40640J0D01*
G01*
X20868640Y-6096000D02*
G75*
G03X20868640Y-6096000I-40640J0D01*
G01*
X20868640Y-6604000D02*
G75*
G03X20868640Y-6604000I-40640J0D01*
G01*
X20868640Y-7112000D02*
G75*
G03X20868640Y-7112000I-40640J0D01*
G01*
X20868640Y-13208000D02*
G75*
G03X20868640Y-13208000I-40640J0D01*
G01*
X20868640Y-14097000D02*
G75*
G03X20868640Y-14097000I-40640J0D01*
G01*
X20868640Y-14351000D02*
G75*
G03X20868640Y-14351000I-40640J0D01*
G01*
X21122640Y-5842000D02*
G75*
G03X21122640Y-5842000I-40640J0D01*
G01*
X21122640Y-6096000D02*
G75*
G03X21122640Y-6096000I-40640J0D01*
G01*
X21122640Y-6350000D02*
G75*
G03X21122640Y-6350000I-40640J0D01*
G01*
X21122640Y-6604000D02*
G75*
G03X21122640Y-6604000I-40640J0D01*
G01*
X21122640Y-6858000D02*
G75*
G03X21122640Y-6858000I-40640J0D01*
G01*
X21122640Y-7112000D02*
G75*
G03X21122640Y-7112000I-40640J0D01*
G01*
X21122640Y-7366000D02*
G75*
G03X21122640Y-7366000I-40640J0D01*
G01*
X21122640Y-10033000D02*
G75*
G03X21122640Y-10033000I-40640J0D01*
G01*
X21122640Y-11049000D02*
G75*
G03X21122640Y-11049000I-40640J0D01*
G01*
X21249640Y-13462000D02*
G75*
G03X21249640Y-13462000I-40640J0D01*
G01*
X21249640Y-13716000D02*
G75*
G03X21249640Y-13716000I-40640J0D01*
G01*
X21376640Y-5334000D02*
G75*
G03X21376640Y-5334000I-40640J0D01*
G01*
X21376640Y-8382000D02*
G75*
G03X21376640Y-8382000I-40640J0D01*
G01*
X21376640Y-8636000D02*
G75*
G03X21376640Y-8636000I-40640J0D01*
G01*
X21376640Y-8890000D02*
G75*
G03X21376640Y-8890000I-40640J0D01*
G01*
X21376640Y-9144000D02*
G75*
G03X21376640Y-9144000I-40640J0D01*
G01*
X21376640Y-10033000D02*
G75*
G03X21376640Y-10033000I-40640J0D01*
G01*
X21376640Y-11049000D02*
G75*
G03X21376640Y-11049000I-40640J0D01*
G01*
X21630640Y-5334000D02*
G75*
G03X21630640Y-5334000I-40640J0D01*
G01*
X21630640Y-8382000D02*
G75*
G03X21630640Y-8382000I-40640J0D01*
G01*
X21630640Y-9398000D02*
G75*
G03X21630640Y-9398000I-40640J0D01*
G01*
X21630640Y-13208000D02*
G75*
G03X21630640Y-13208000I-40640J0D01*
G01*
X21630640Y-13970000D02*
G75*
G03X21630640Y-13970000I-40640J0D01*
G01*
X21884640Y-5842000D02*
G75*
G03X21884640Y-5842000I-40640J0D01*
G01*
X21884640Y-6096000D02*
G75*
G03X21884640Y-6096000I-40640J0D01*
G01*
X21884640Y-6350000D02*
G75*
G03X21884640Y-6350000I-40640J0D01*
G01*
X21884640Y-6604000D02*
G75*
G03X21884640Y-6604000I-40640J0D01*
G01*
X21884640Y-6858000D02*
G75*
G03X21884640Y-6858000I-40640J0D01*
G01*
X21884640Y-7112000D02*
G75*
G03X21884640Y-7112000I-40640J0D01*
G01*
X21884640Y-7366000D02*
G75*
G03X21884640Y-7366000I-40640J0D01*
G01*
X21884640Y-13208000D02*
G75*
G03X21884640Y-13208000I-40640J0D01*
G01*
X21884640Y-13970000D02*
G75*
G03X21884640Y-13970000I-40640J0D01*
G01*
X22138640Y-6350000D02*
G75*
G03X22138640Y-6350000I-40640J0D01*
G01*
X22138640Y-6858000D02*
G75*
G03X22138640Y-6858000I-40640J0D01*
G01*
X22138640Y-7366000D02*
G75*
G03X22138640Y-7366000I-40640J0D01*
G01*
X22519640Y-6096000D02*
G75*
G03X22519640Y-6096000I-40640J0D01*
G01*
X22519640Y-6604000D02*
G75*
G03X22519640Y-6604000I-40640J0D01*
G01*
X22519640Y-7112000D02*
G75*
G03X22519640Y-7112000I-40640J0D01*
G01*
X22773640Y-6096000D02*
G75*
G03X22773640Y-6096000I-40640J0D01*
G01*
X22773640Y-6604000D02*
G75*
G03X22773640Y-6604000I-40640J0D01*
G01*
X22773640Y-7112000D02*
G75*
G03X22773640Y-7112000I-40640J0D01*
G01*
X23154640Y-6350000D02*
G75*
G03X23154640Y-6350000I-40640J0D01*
G01*
X23154640Y-6858000D02*
G75*
G03X23154640Y-6858000I-40640J0D01*
G01*
X23154640Y-7366000D02*
G75*
G03X23154640Y-7366000I-40640J0D01*
G01*
X9779000Y-11887200D02*
X9779000Y-11988800D01*
X9728200Y-11938000D02*
X9829800Y-11938000D01*
X9779000Y-12141200D02*
X9779000Y-12242800D01*
X9728200Y-12192000D02*
X9829800Y-12192000D01*
X10033000Y-11887200D02*
X10033000Y-11988800D01*
X9982200Y-11938000D02*
X10083800Y-11938000D01*
X10033000Y-12141200D02*
X10033000Y-12242800D01*
X9982200Y-12192000D02*
X10083800Y-12192000D01*
X10287000Y-11887200D02*
X10287000Y-11988800D01*
X10236200Y-11938000D02*
X10337800Y-11938000D01*
X10287000Y-12141200D02*
X10287000Y-12242800D01*
X10236200Y-12192000D02*
X10337800Y-12192000D01*
X10541000Y-11887200D02*
X10541000Y-11988800D01*
X10490200Y-11938000D02*
X10591800Y-11938000D01*
X10541000Y-12141200D02*
X10541000Y-12242800D01*
X10490200Y-12192000D02*
X10591800Y-12192000D01*
X10795000Y-11887200D02*
X10795000Y-11988800D01*
X10744200Y-11938000D02*
X10845800Y-11938000D01*
X10795000Y-12141200D02*
X10795000Y-12242800D01*
X10744200Y-12192000D02*
X10845800Y-12192000D01*
X10922000Y-10236200D02*
X10922000Y-10337800D01*
X10871200Y-10287000D02*
X10972800Y-10287000D01*
X10922000Y-10490200D02*
X10922000Y-10591800D01*
X10871200Y-10541000D02*
X10972800Y-10541000D01*
X11049000Y-11887200D02*
X11049000Y-11988800D01*
X10998200Y-11938000D02*
X11099800Y-11938000D01*
X11049000Y-12141200D02*
X11049000Y-12242800D01*
X10998200Y-12192000D02*
X11099800Y-12192000D01*
X11176000Y-10236200D02*
X11176000Y-10337800D01*
X11125200Y-10287000D02*
X11226800Y-10287000D01*
X11176000Y-10490200D02*
X11176000Y-10591800D01*
X11125200Y-10541000D02*
X11226800Y-10541000D01*
X11303000Y-11887200D02*
X11303000Y-11988800D01*
X11252200Y-11938000D02*
X11353800Y-11938000D01*
X11303000Y-12141200D02*
X11303000Y-12242800D01*
X11252200Y-12192000D02*
X11353800Y-12192000D01*
X11430000Y-10236200D02*
X11430000Y-10337800D01*
X11379200Y-10287000D02*
X11480800Y-10287000D01*
X11430000Y-10490200D02*
X11430000Y-10591800D01*
X11379200Y-10541000D02*
X11480800Y-10541000D01*
X11557000Y-11887200D02*
X11557000Y-11988800D01*
X11506200Y-11938000D02*
X11607800Y-11938000D01*
X11557000Y-12141200D02*
X11557000Y-12242800D01*
X11506200Y-12192000D02*
X11607800Y-12192000D01*
X11684000Y-10236200D02*
X11684000Y-10337800D01*
X11633200Y-10287000D02*
X11734800Y-10287000D01*
X11684000Y-10490200D02*
X11684000Y-10591800D01*
X11633200Y-10541000D02*
X11734800Y-10541000D01*
X11811000Y-11887200D02*
X11811000Y-11988800D01*
X11760200Y-11938000D02*
X11861800Y-11938000D01*
X11811000Y-12141200D02*
X11811000Y-12242800D01*
X11760200Y-12192000D02*
X11861800Y-12192000D01*
X11938000Y-10236200D02*
X11938000Y-10337800D01*
X11887200Y-10287000D02*
X11988800Y-10287000D01*
X11938000Y-10490200D02*
X11938000Y-10591800D01*
X11887200Y-10541000D02*
X11988800Y-10541000D01*
X12065000Y-11887200D02*
X12065000Y-11988800D01*
X12014200Y-11938000D02*
X12115800Y-11938000D01*
X12065000Y-12141200D02*
X12065000Y-12242800D01*
X12014200Y-12192000D02*
X12115800Y-12192000D01*
X12192000Y-10236200D02*
X12192000Y-10337800D01*
X12141200Y-10287000D02*
X12242800Y-10287000D01*
X12192000Y-10490200D02*
X12192000Y-10591800D01*
X12141200Y-10541000D02*
X12242800Y-10541000D01*
X12319000Y-11887200D02*
X12319000Y-11988800D01*
X12268200Y-11938000D02*
X12369800Y-11938000D01*
X12319000Y-12141200D02*
X12319000Y-12242800D01*
X12268200Y-12192000D02*
X12369800Y-12192000D01*
X12446000Y-10236200D02*
X12446000Y-10337800D01*
X12395200Y-10287000D02*
X12496800Y-10287000D01*
X12446000Y-10490200D02*
X12446000Y-10591800D01*
X12395200Y-10541000D02*
X12496800Y-10541000D01*
X12573000Y-11887200D02*
X12573000Y-11988800D01*
X12522200Y-11938000D02*
X12623800Y-11938000D01*
X12573000Y-12141200D02*
X12573000Y-12242800D01*
X12522200Y-12192000D02*
X12623800Y-12192000D01*
X12700000Y-10236200D02*
X12700000Y-10337800D01*
X12649200Y-10287000D02*
X12750800Y-10287000D01*
X12700000Y-10490200D02*
X12700000Y-10591800D01*
X12649200Y-10541000D02*
X12750800Y-10541000D01*
X16129000Y-8585200D02*
X16129000Y-8686800D01*
X16078200Y-8636000D02*
X16179800Y-8636000D01*
X20828000Y-7823200D02*
X20828000Y-7924800D01*
X20777200Y-7874000D02*
X20878800Y-7874000D01*
X21082000Y-7823200D02*
X21082000Y-7924800D01*
X21031200Y-7874000D02*
X21132800Y-7874000D01*
X21336000Y-7823200D02*
X21336000Y-7924800D01*
X21285200Y-7874000D02*
X21386800Y-7874000D01*
X21590000Y-7823200D02*
X21590000Y-7924800D01*
X21539200Y-7874000D02*
X21640800Y-7874000D01*
X21844000Y-7823200D02*
X21844000Y-7924800D01*
X21793200Y-7874000D02*
X21894800Y-7874000D01*
X22098000Y-7823200D02*
X22098000Y-7924800D01*
X22047200Y-7874000D02*
X22148800Y-7874000D01*
X4983616Y-5630615D02*
X4983616Y-5553385D01*
X4906385Y-5553385D01*
X4906385Y-5630615D01*
X4983616Y-5630615D01*
X4983616Y-5880615D02*
X4983616Y-5803384D01*
X4906385Y-5803384D01*
X4906385Y-5880615D01*
X4983616Y-5880615D01*
X4983616Y-6130615D02*
X4983616Y-6053384D01*
X4906385Y-6053384D01*
X4906385Y-6130615D01*
X4983616Y-6130615D01*
X4983616Y-8297615D02*
X4983616Y-8220384D01*
X4906385Y-8220384D01*
X4906385Y-8297615D01*
X4983616Y-8297615D01*
X4983616Y-8547616D02*
X4983616Y-8470385D01*
X4906385Y-8470385D01*
X4906385Y-8547616D01*
X4983616Y-8547616D01*
X4983616Y-8797616D02*
X4983616Y-8720385D01*
X4906385Y-8720385D01*
X4906385Y-8797616D01*
X4983616Y-8797616D01*
X4983616Y-11345615D02*
X4983616Y-11268384D01*
X4906385Y-11268384D01*
X4906385Y-11345615D01*
X4983616Y-11345615D01*
X4983616Y-11595615D02*
X4983616Y-11518384D01*
X4906385Y-11518384D01*
X4906385Y-11595615D01*
X4983616Y-11595615D01*
X4983616Y-11845615D02*
X4983616Y-11768384D01*
X4906385Y-11768384D01*
X4906385Y-11845615D01*
X4983616Y-11845615D01*
X4983616Y-13885615D02*
X4983616Y-13808384D01*
X4906385Y-13808384D01*
X4906385Y-13885615D01*
X4983616Y-13885615D01*
X4983616Y-14135615D02*
X4983616Y-14058384D01*
X4906385Y-14058384D01*
X4906385Y-14135615D01*
X4983616Y-14135615D01*
X4983616Y-14385615D02*
X4983616Y-14308384D01*
X4906385Y-14308384D01*
X4906385Y-14385615D01*
X4983616Y-14385615D01*
X6134615Y-7404615D02*
X6134615Y-7327384D01*
X6057384Y-7327384D01*
X6057384Y-7404615D01*
X6134615Y-7404615D01*
X6134615Y-7658615D02*
X6134615Y-7581384D01*
X6057384Y-7581384D01*
X6057384Y-7658615D01*
X6134615Y-7658615D01*
X6134615Y-7912615D02*
X6134615Y-7835384D01*
X6057384Y-7835384D01*
X6057384Y-7912615D01*
X6134615Y-7912615D01*
X6134615Y-12230615D02*
X6134615Y-12153384D01*
X6057384Y-12153384D01*
X6057384Y-12230615D01*
X6134615Y-12230615D01*
X6134615Y-12484615D02*
X6134615Y-12407384D01*
X6057384Y-12407384D01*
X6057384Y-12484615D01*
X6134615Y-12484615D01*
X6134615Y-12738615D02*
X6134615Y-12661384D01*
X6057384Y-12661384D01*
X6057384Y-12738615D01*
X6134615Y-12738615D01*
X6388615Y-7404615D02*
X6388615Y-7327384D01*
X6311384Y-7327384D01*
X6311384Y-7404615D01*
X6388615Y-7404615D01*
X6388615Y-7658615D02*
X6388615Y-7581384D01*
X6311384Y-7581384D01*
X6311384Y-7658615D01*
X6388615Y-7658615D01*
X6388615Y-7912615D02*
X6388615Y-7835384D01*
X6311384Y-7835384D01*
X6311384Y-7912615D01*
X6388615Y-7912615D01*
X6388615Y-12230615D02*
X6388615Y-12153384D01*
X6311384Y-12153384D01*
X6311384Y-12230615D01*
X6388615Y-12230615D01*
X6388615Y-12484615D02*
X6388615Y-12407384D01*
X6311384Y-12407384D01*
X6311384Y-12484615D01*
X6388615Y-12484615D01*
X6388615Y-12738615D02*
X6388615Y-12661384D01*
X6311384Y-12661384D01*
X6311384Y-12738615D01*
X6388615Y-12738615D01*
X7904615Y-5630615D02*
X7904615Y-5553385D01*
X7827384Y-5553385D01*
X7827384Y-5630615D01*
X7904615Y-5630615D01*
X7904615Y-5880615D02*
X7904615Y-5803384D01*
X7827384Y-5803384D01*
X7827384Y-5880615D01*
X7904615Y-5880615D01*
X7904615Y-6130615D02*
X7904615Y-6053384D01*
X7827384Y-6053384D01*
X7827384Y-6130615D01*
X7904615Y-6130615D01*
X7904615Y-13885615D02*
X7904615Y-13808384D01*
X7827384Y-13808384D01*
X7827384Y-13885615D01*
X7904615Y-13885615D01*
X7904615Y-14135615D02*
X7904615Y-14058384D01*
X7827384Y-14058384D01*
X7827384Y-14135615D01*
X7904615Y-14135615D01*
X7904615Y-14385615D02*
X7904615Y-14308384D01*
X7827384Y-14308384D01*
X7827384Y-14385615D01*
X7904615Y-14385615D01*
X7912615Y-7404615D02*
X7912615Y-7327384D01*
X7835384Y-7327384D01*
X7835384Y-7404615D01*
X7912615Y-7404615D01*
X7912615Y-7658615D02*
X7912615Y-7581384D01*
X7835384Y-7581384D01*
X7835384Y-7658615D01*
X7912615Y-7658615D01*
X7912615Y-7912615D02*
X7912615Y-7835384D01*
X7835384Y-7835384D01*
X7835384Y-7912615D01*
X7912615Y-7912615D01*
X7912615Y-9436616D02*
X7912615Y-9359385D01*
X7835384Y-9359385D01*
X7835384Y-9436616D01*
X7912615Y-9436616D01*
X7912615Y-9690616D02*
X7912615Y-9613385D01*
X7835384Y-9613385D01*
X7835384Y-9690616D01*
X7912615Y-9690616D01*
X7912615Y-9944616D02*
X7912615Y-9867385D01*
X7835384Y-9867385D01*
X7835384Y-9944616D01*
X7912615Y-9944616D01*
X7912615Y-10198616D02*
X7912615Y-10121385D01*
X7835384Y-10121385D01*
X7835384Y-10198616D01*
X7912615Y-10198616D01*
X7912615Y-10452616D02*
X7912615Y-10375385D01*
X7835384Y-10375385D01*
X7835384Y-10452616D01*
X7912615Y-10452616D01*
X7912615Y-10706616D02*
X7912615Y-10629385D01*
X7835384Y-10629385D01*
X7835384Y-10706616D01*
X7912615Y-10706616D01*
X7912615Y-12230615D02*
X7912615Y-12153384D01*
X7835384Y-12153384D01*
X7835384Y-12230615D01*
X7912615Y-12230615D01*
X7912615Y-12484615D02*
X7912615Y-12407384D01*
X7835384Y-12407384D01*
X7835384Y-12484615D01*
X7912615Y-12484615D01*
X7912615Y-12738615D02*
X7912615Y-12661384D01*
X7835384Y-12661384D01*
X7835384Y-12738615D01*
X7912615Y-12738615D01*
X8166615Y-7404615D02*
X8166615Y-7327384D01*
X8089384Y-7327384D01*
X8089384Y-7404615D01*
X8166615Y-7404615D01*
X8166615Y-7658615D02*
X8166615Y-7581384D01*
X8089384Y-7581384D01*
X8089384Y-7658615D01*
X8166615Y-7658615D01*
X8166615Y-7912615D02*
X8166615Y-7835384D01*
X8089384Y-7835384D01*
X8089384Y-7912615D01*
X8166615Y-7912615D01*
X8166615Y-9436616D02*
X8166615Y-9359385D01*
X8089384Y-9359385D01*
X8089384Y-9436616D01*
X8166615Y-9436616D01*
X8166615Y-9690616D02*
X8166615Y-9613385D01*
X8089384Y-9613385D01*
X8089384Y-9690616D01*
X8166615Y-9690616D01*
X8166615Y-9944616D02*
X8166615Y-9867385D01*
X8089384Y-9867385D01*
X8089384Y-9944616D01*
X8166615Y-9944616D01*
X8166615Y-10198616D02*
X8166615Y-10121385D01*
X8089384Y-10121385D01*
X8089384Y-10198616D01*
X8166615Y-10198616D01*
X8166615Y-10452616D02*
X8166615Y-10375385D01*
X8089384Y-10375385D01*
X8089384Y-10452616D01*
X8166615Y-10452616D01*
X8166615Y-10706616D02*
X8166615Y-10629385D01*
X8089384Y-10629385D01*
X8089384Y-10706616D01*
X8166615Y-10706616D01*
X8166615Y-12230615D02*
X8166615Y-12153384D01*
X8089384Y-12153384D01*
X8089384Y-12230615D01*
X8166615Y-12230615D01*
X8166615Y-12484615D02*
X8166615Y-12407384D01*
X8089384Y-12407384D01*
X8089384Y-12484615D01*
X8166615Y-12484615D01*
X8166615Y-12738615D02*
X8166615Y-12661384D01*
X8089384Y-12661384D01*
X8089384Y-12738615D01*
X8166615Y-12738615D01*
X8801616Y-8547616D02*
X8801616Y-8470385D01*
X8724385Y-8470385D01*
X8724385Y-8547616D01*
X8801616Y-8547616D01*
X9055616Y-8547616D02*
X9055616Y-8470385D01*
X8978385Y-8470385D01*
X8978385Y-8547616D01*
X9055616Y-8547616D01*
X9309616Y-8547616D02*
X9309616Y-8470385D01*
X9232385Y-8470385D01*
X9232385Y-8547616D01*
X9309616Y-8547616D01*
X9309616Y-10325616D02*
X9309616Y-10248385D01*
X9232385Y-10248385D01*
X9232385Y-10325616D01*
X9309616Y-10325616D01*
X9563616Y-8547616D02*
X9563616Y-8470385D01*
X9486385Y-8470385D01*
X9486385Y-8547616D01*
X9563616Y-8547616D01*
X9563616Y-10325616D02*
X9563616Y-10248385D01*
X9486385Y-10248385D01*
X9486385Y-10325616D01*
X9563616Y-10325616D01*
X9817616Y-10325616D02*
X9817616Y-10248385D01*
X9740385Y-10248385D01*
X9740385Y-10325616D01*
X9817616Y-10325616D01*
X9944616Y-5626615D02*
X9944616Y-5549385D01*
X9867385Y-5549385D01*
X9867385Y-5626615D01*
X9944616Y-5626615D01*
X9944616Y-5880615D02*
X9944616Y-5803384D01*
X9867385Y-5803384D01*
X9867385Y-5880615D01*
X9944616Y-5880615D01*
X9944616Y-7658615D02*
X9944616Y-7581384D01*
X9867385Y-7581384D01*
X9867385Y-7658615D01*
X9944616Y-7658615D01*
X9944616Y-7912615D02*
X9944616Y-7835384D01*
X9867385Y-7835384D01*
X9867385Y-7912615D01*
X9944616Y-7912615D01*
X10071616Y-10325616D02*
X10071616Y-10248385D01*
X9994385Y-10248385D01*
X9994385Y-10325616D01*
X10071616Y-10325616D01*
X10198616Y-5626615D02*
X10198616Y-5549385D01*
X10121385Y-5549385D01*
X10121385Y-5626615D01*
X10198616Y-5626615D01*
X10198616Y-5880615D02*
X10198616Y-5803384D01*
X10121385Y-5803384D01*
X10121385Y-5880615D01*
X10198616Y-5880615D01*
X10198616Y-7658615D02*
X10198616Y-7581384D01*
X10121385Y-7581384D01*
X10121385Y-7658615D01*
X10198616Y-7658615D01*
X10198616Y-7912615D02*
X10198616Y-7835384D01*
X10121385Y-7835384D01*
X10121385Y-7912615D01*
X10198616Y-7912615D01*
X10325616Y-10325616D02*
X10325616Y-10248385D01*
X10248385Y-10248385D01*
X10248385Y-10325616D01*
X10325616Y-10325616D01*
X10325616Y-14008615D02*
X10325616Y-13931384D01*
X10248385Y-13931384D01*
X10248385Y-14008615D01*
X10325616Y-14008615D01*
X10452616Y-5626615D02*
X10452616Y-5549385D01*
X10375385Y-5549385D01*
X10375385Y-5626615D01*
X10452616Y-5626615D01*
X10452616Y-5880615D02*
X10452616Y-5803384D01*
X10375385Y-5803384D01*
X10375385Y-5880615D01*
X10452616Y-5880615D01*
X10452616Y-7658615D02*
X10452616Y-7581384D01*
X10375385Y-7581384D01*
X10375385Y-7658615D01*
X10452616Y-7658615D01*
X10452616Y-7912615D02*
X10452616Y-7835384D01*
X10375385Y-7835384D01*
X10375385Y-7912615D01*
X10452616Y-7912615D01*
X10579616Y-14008615D02*
X10579616Y-13931384D01*
X10502385Y-13931384D01*
X10502385Y-14008615D01*
X10579616Y-14008615D01*
X10706616Y-5626615D02*
X10706616Y-5549385D01*
X10629385Y-5549385D01*
X10629385Y-5626615D01*
X10706616Y-5626615D01*
X10706616Y-5880615D02*
X10706616Y-5803384D01*
X10629385Y-5803384D01*
X10629385Y-5880615D01*
X10706616Y-5880615D01*
X10706616Y-7658615D02*
X10706616Y-7581384D01*
X10629385Y-7581384D01*
X10629385Y-7658615D01*
X10706616Y-7658615D01*
X10706616Y-7912615D02*
X10706616Y-7835384D01*
X10629385Y-7835384D01*
X10629385Y-7912615D01*
X10706616Y-7912615D01*
X11468615Y-5880615D02*
X11468615Y-5803384D01*
X11391384Y-5803384D01*
X11391384Y-5880615D01*
X11468615Y-5880615D01*
X11468615Y-7658615D02*
X11468615Y-7581384D01*
X11391384Y-7581384D01*
X11391384Y-7658615D01*
X11468615Y-7658615D01*
X11468615Y-14516615D02*
X11468615Y-14439384D01*
X11391384Y-14439384D01*
X11391384Y-14516615D01*
X11468615Y-14516615D01*
X11722615Y-5880615D02*
X11722615Y-5803384D01*
X11645384Y-5803384D01*
X11645384Y-5880615D01*
X11722615Y-5880615D01*
X11722615Y-7658615D02*
X11722615Y-7581384D01*
X11645384Y-7581384D01*
X11645384Y-7658615D01*
X11722615Y-7658615D01*
X11722615Y-14516615D02*
X11722615Y-14439384D01*
X11645384Y-14439384D01*
X11645384Y-14516615D01*
X11722615Y-14516615D01*
X11976615Y-5880615D02*
X11976615Y-5803384D01*
X11899384Y-5803384D01*
X11899384Y-5880615D01*
X11976615Y-5880615D01*
X11976615Y-7658615D02*
X11976615Y-7581384D01*
X11899384Y-7581384D01*
X11899384Y-7658615D01*
X11976615Y-7658615D01*
X11976615Y-14516615D02*
X11976615Y-14439384D01*
X11899384Y-14439384D01*
X11899384Y-14516615D01*
X11976615Y-14516615D01*
X12230615Y-11214615D02*
X12230615Y-11137385D01*
X12153384Y-11137385D01*
X12153384Y-11214615D01*
X12230615Y-11214615D01*
X12230615Y-14516615D02*
X12230615Y-14439384D01*
X12153384Y-14439384D01*
X12153384Y-14516615D01*
X12230615Y-14516615D01*
X12484615Y-5880615D02*
X12484615Y-5803384D01*
X12407384Y-5803384D01*
X12407384Y-5880615D01*
X12484615Y-5880615D01*
X12484615Y-6134615D02*
X12484615Y-6057384D01*
X12407384Y-6057384D01*
X12407384Y-6134615D01*
X12484615Y-6134615D01*
X12484615Y-6388615D02*
X12484615Y-6311384D01*
X12407384Y-6311384D01*
X12407384Y-6388615D01*
X12484615Y-6388615D01*
X12484615Y-7404615D02*
X12484615Y-7327384D01*
X12407384Y-7327384D01*
X12407384Y-7404615D01*
X12484615Y-7404615D01*
X12484615Y-7658615D02*
X12484615Y-7581384D01*
X12407384Y-7581384D01*
X12407384Y-7658615D01*
X12484615Y-7658615D01*
X12484615Y-7912615D02*
X12484615Y-7835384D01*
X12407384Y-7835384D01*
X12407384Y-7912615D01*
X12484615Y-7912615D01*
X12484615Y-11214615D02*
X12484615Y-11137385D01*
X12407384Y-11137385D01*
X12407384Y-11214615D01*
X12484615Y-11214615D01*
X12738615Y-11214615D02*
X12738615Y-11137385D01*
X12661384Y-11137385D01*
X12661384Y-11214615D01*
X12738615Y-11214615D01*
X12992615Y-11214615D02*
X12992615Y-11137385D01*
X12915384Y-11137385D01*
X12915384Y-11214615D01*
X12992615Y-11214615D01*
X13246615Y-8420616D02*
X13246615Y-8343384D01*
X13169384Y-8343384D01*
X13169384Y-8420616D01*
X13246615Y-8420616D01*
X13246615Y-8674616D02*
X13246615Y-8597385D01*
X13169384Y-8597385D01*
X13169384Y-8674616D01*
X13246615Y-8674616D01*
X13246615Y-8928616D02*
X13246615Y-8851385D01*
X13169384Y-8851385D01*
X13169384Y-8928616D01*
X13246615Y-8928616D01*
X13246615Y-9182616D02*
X13246615Y-9105385D01*
X13169384Y-9105385D01*
X13169384Y-9182616D01*
X13246615Y-9182616D01*
X13246615Y-13500615D02*
X13246615Y-13423384D01*
X13169384Y-13423384D01*
X13169384Y-13500615D01*
X13246615Y-13500615D01*
X13246615Y-13754615D02*
X13246615Y-13677384D01*
X13169384Y-13677384D01*
X13169384Y-13754615D01*
X13246615Y-13754615D01*
X13246615Y-14008615D02*
X13246615Y-13931384D01*
X13169384Y-13931384D01*
X13169384Y-14008615D01*
X13246615Y-14008615D01*
X13246615Y-14262615D02*
X13246615Y-14185384D01*
X13169384Y-14185384D01*
X13169384Y-14262615D01*
X13246615Y-14262615D01*
X13881615Y-8674616D02*
X13881615Y-8597385D01*
X13804384Y-8597385D01*
X13804384Y-8674616D01*
X13881615Y-8674616D01*
X13881615Y-8928616D02*
X13881615Y-8851385D01*
X13804384Y-8851385D01*
X13804384Y-8928616D01*
X13881615Y-8928616D01*
X14008615Y-11722615D02*
X14008615Y-11645384D01*
X13931384Y-11645384D01*
X13931384Y-11722615D01*
X14008615Y-11722615D01*
X14008615Y-12611615D02*
X14008615Y-12534384D01*
X13931384Y-12534384D01*
X13931384Y-12611615D01*
X14008615Y-12611615D01*
X14135615Y-8674616D02*
X14135615Y-8597385D01*
X14058384Y-8597385D01*
X14058384Y-8674616D01*
X14135615Y-8674616D01*
X14135615Y-8928616D02*
X14135615Y-8851385D01*
X14058384Y-8851385D01*
X14058384Y-8928616D01*
X14135615Y-8928616D01*
X14262615Y-11722615D02*
X14262615Y-11645384D01*
X14185384Y-11645384D01*
X14185384Y-11722615D01*
X14262615Y-11722615D01*
X14262615Y-12611615D02*
X14262615Y-12534384D01*
X14185384Y-12534384D01*
X14185384Y-12611615D01*
X14262615Y-12611615D01*
X14389615Y-8674616D02*
X14389615Y-8597385D01*
X14312384Y-8597385D01*
X14312384Y-8674616D01*
X14389615Y-8674616D01*
X14389615Y-8928616D02*
X14389615Y-8851385D01*
X14312384Y-8851385D01*
X14312384Y-8928616D01*
X14389615Y-8928616D01*
X14516615Y-11722615D02*
X14516615Y-11645384D01*
X14439384Y-11645384D01*
X14439384Y-11722615D01*
X14516615Y-11722615D01*
X14516615Y-12611615D02*
X14516615Y-12534384D01*
X14439384Y-12534384D01*
X14439384Y-12611615D01*
X14516615Y-12611615D01*
X14643615Y-8674616D02*
X14643615Y-8597385D01*
X14566384Y-8597385D01*
X14566384Y-8674616D01*
X14643615Y-8674616D01*
X14643615Y-8928616D02*
X14643615Y-8851385D01*
X14566384Y-8851385D01*
X14566384Y-8928616D01*
X14643615Y-8928616D01*
X14770615Y-11722615D02*
X14770615Y-11645384D01*
X14693384Y-11645384D01*
X14693384Y-11722615D01*
X14770615Y-11722615D01*
X14770615Y-12611615D02*
X14770615Y-12534384D01*
X14693384Y-12534384D01*
X14693384Y-12611615D01*
X14770615Y-12611615D01*
X14897615Y-8674616D02*
X14897615Y-8597385D01*
X14820384Y-8597385D01*
X14820384Y-8674616D01*
X14897615Y-8674616D01*
X14897615Y-8928616D02*
X14897615Y-8851385D01*
X14820384Y-8851385D01*
X14820384Y-8928616D01*
X14897615Y-8928616D01*
X15024615Y-11722615D02*
X15024615Y-11645384D01*
X14947384Y-11645384D01*
X14947384Y-11722615D01*
X15024615Y-11722615D01*
X15024615Y-12611615D02*
X15024615Y-12534384D01*
X14947384Y-12534384D01*
X14947384Y-12611615D01*
X15024615Y-12611615D01*
X15024615Y-13500615D02*
X15024615Y-13423384D01*
X14947384Y-13423384D01*
X14947384Y-13500615D01*
X15024615Y-13500615D01*
X15024615Y-13754615D02*
X15024615Y-13677384D01*
X14947384Y-13677384D01*
X14947384Y-13754615D01*
X15024615Y-13754615D01*
X15151615Y-7912615D02*
X15151615Y-7835384D01*
X15074384Y-7835384D01*
X15074384Y-7912615D01*
X15151615Y-7912615D01*
X15151615Y-8674616D02*
X15151615Y-8597385D01*
X15074384Y-8597385D01*
X15074384Y-8674616D01*
X15151615Y-8674616D01*
X15151615Y-8928616D02*
X15151615Y-8851385D01*
X15074384Y-8851385D01*
X15074384Y-8928616D01*
X15151615Y-8928616D01*
X15278615Y-11722615D02*
X15278615Y-11645384D01*
X15201384Y-11645384D01*
X15201384Y-11722615D01*
X15278615Y-11722615D01*
X15278615Y-12611615D02*
X15278615Y-12534384D01*
X15201384Y-12534384D01*
X15201384Y-12611615D01*
X15278615Y-12611615D01*
X15405615Y-7912615D02*
X15405615Y-7835384D01*
X15328384Y-7835384D01*
X15328384Y-7912615D01*
X15405615Y-7912615D01*
X15405615Y-8674616D02*
X15405615Y-8597385D01*
X15328384Y-8597385D01*
X15328384Y-8674616D01*
X15405615Y-8674616D01*
X15405615Y-8928616D02*
X15405615Y-8851385D01*
X15328384Y-8851385D01*
X15328384Y-8928616D01*
X15405615Y-8928616D01*
X15405615Y-10706616D02*
X15405615Y-10629385D01*
X15328384Y-10629385D01*
X15328384Y-10706616D01*
X15405615Y-10706616D01*
X15532615Y-11722615D02*
X15532615Y-11645384D01*
X15455384Y-11645384D01*
X15455384Y-11722615D01*
X15532615Y-11722615D01*
X15532615Y-12611615D02*
X15532615Y-12534384D01*
X15455384Y-12534384D01*
X15455384Y-12611615D01*
X15532615Y-12611615D01*
X15659615Y-7912615D02*
X15659615Y-7835384D01*
X15582384Y-7835384D01*
X15582384Y-7912615D01*
X15659615Y-7912615D01*
X15659615Y-8674616D02*
X15659615Y-8597385D01*
X15582384Y-8597385D01*
X15582384Y-8674616D01*
X15659615Y-8674616D01*
X15659615Y-8928616D02*
X15659615Y-8851385D01*
X15582384Y-8851385D01*
X15582384Y-8928616D01*
X15659615Y-8928616D01*
X15659615Y-10706616D02*
X15659615Y-10629385D01*
X15582384Y-10629385D01*
X15582384Y-10706616D01*
X15659615Y-10706616D01*
X15786615Y-11722615D02*
X15786615Y-11645384D01*
X15709384Y-11645384D01*
X15709384Y-11722615D01*
X15786615Y-11722615D01*
X15786615Y-12611615D02*
X15786615Y-12534384D01*
X15709384Y-12534384D01*
X15709384Y-12611615D01*
X15786615Y-12611615D01*
X15913615Y-7912615D02*
X15913615Y-7835384D01*
X15836384Y-7835384D01*
X15836384Y-7912615D01*
X15913615Y-7912615D01*
X15913615Y-8674616D02*
X15913615Y-8597385D01*
X15836384Y-8597385D01*
X15836384Y-8674616D01*
X15913615Y-8674616D01*
X15913615Y-8928616D02*
X15913615Y-8851385D01*
X15836384Y-8851385D01*
X15836384Y-8928616D01*
X15913615Y-8928616D01*
X15913615Y-10706616D02*
X15913615Y-10629385D01*
X15836384Y-10629385D01*
X15836384Y-10706616D01*
X15913615Y-10706616D01*
X16167615Y-8928616D02*
X16167615Y-8851385D01*
X16090384Y-8851385D01*
X16090384Y-8928616D01*
X16167615Y-8928616D01*
X16223115Y-6456115D02*
X16223115Y-6378884D01*
X16145884Y-6378884D01*
X16145884Y-6456115D01*
X16223115Y-6456115D01*
X16223115Y-6706115D02*
X16223115Y-6628884D01*
X16145884Y-6628884D01*
X16145884Y-6706115D01*
X16223115Y-6706115D01*
X16223115Y-6956115D02*
X16223115Y-6878884D01*
X16145884Y-6878884D01*
X16145884Y-6956115D01*
X16223115Y-6956115D01*
X16675615Y-11849615D02*
X16675615Y-11772384D01*
X16598384Y-11772384D01*
X16598384Y-11849615D01*
X16675615Y-11849615D01*
X16675615Y-12103615D02*
X16675615Y-12026384D01*
X16598384Y-12026384D01*
X16598384Y-12103615D01*
X16675615Y-12103615D01*
X16929616Y-11849615D02*
X16929616Y-11772384D01*
X16852385Y-11772384D01*
X16852385Y-11849615D01*
X16929616Y-11849615D01*
X16929616Y-12103615D02*
X16929616Y-12026384D01*
X16852385Y-12026384D01*
X16852385Y-12103615D01*
X16929616Y-12103615D01*
X17187616Y-13635615D02*
X17187616Y-13558384D01*
X17110385Y-13558384D01*
X17110385Y-13635615D01*
X17187616Y-13635615D01*
X17437616Y-10706616D02*
X17437616Y-10629385D01*
X17360385Y-10629385D01*
X17360385Y-10706616D01*
X17437616Y-10706616D01*
X17437616Y-11849615D02*
X17437616Y-11772384D01*
X17360385Y-11772384D01*
X17360385Y-11849615D01*
X17437616Y-11849615D01*
X17437616Y-12103615D02*
X17437616Y-12026384D01*
X17360385Y-12026384D01*
X17360385Y-12103615D01*
X17437616Y-12103615D01*
X17437616Y-13635615D02*
X17437616Y-13558384D01*
X17360385Y-13558384D01*
X17360385Y-13635615D01*
X17437616Y-13635615D01*
X17687616Y-13635615D02*
X17687616Y-13558384D01*
X17610385Y-13558384D01*
X17610385Y-13635615D01*
X17687616Y-13635615D01*
X17691616Y-9436616D02*
X17691616Y-9359385D01*
X17614385Y-9359385D01*
X17614385Y-9436616D01*
X17691616Y-9436616D01*
X17691616Y-10706616D02*
X17691616Y-10629385D01*
X17614385Y-10629385D01*
X17614385Y-10706616D01*
X17691616Y-10706616D01*
X17691616Y-11849615D02*
X17691616Y-11772384D01*
X17614385Y-11772384D01*
X17614385Y-11849615D01*
X17691616Y-11849615D01*
X17691616Y-12103615D02*
X17691616Y-12026384D01*
X17614385Y-12026384D01*
X17614385Y-12103615D01*
X17691616Y-12103615D01*
X17945616Y-9436616D02*
X17945616Y-9359385D01*
X17868385Y-9359385D01*
X17868385Y-9436616D01*
X17945616Y-9436616D01*
X17945616Y-10960616D02*
X17945616Y-10883385D01*
X17868385Y-10883385D01*
X17868385Y-10960616D01*
X17945616Y-10960616D01*
X18199616Y-9182616D02*
X18199616Y-9105385D01*
X18122385Y-9105385D01*
X18122385Y-9182616D01*
X18199616Y-9182616D01*
X18199616Y-10960616D02*
X18199616Y-10883385D01*
X18122385Y-10883385D01*
X18122385Y-10960616D01*
X18199616Y-10960616D01*
X18453616Y-9182616D02*
X18453616Y-9105385D01*
X18376385Y-9105385D01*
X18376385Y-9182616D01*
X18453616Y-9182616D01*
X18453616Y-10706616D02*
X18453616Y-10629385D01*
X18376385Y-10629385D01*
X18376385Y-10706616D01*
X18453616Y-10706616D01*
X18517116Y-6706115D02*
X18517116Y-6628884D01*
X18439885Y-6628884D01*
X18439885Y-6706115D01*
X18517116Y-6706115D01*
X18517116Y-6960115D02*
X18517116Y-6882884D01*
X18439885Y-6882884D01*
X18439885Y-6960115D01*
X18517116Y-6960115D01*
X18517116Y-7976115D02*
X18517116Y-7898884D01*
X18439885Y-7898884D01*
X18439885Y-7976115D01*
X18517116Y-7976115D01*
X18517116Y-8230115D02*
X18517116Y-8152884D01*
X18439885Y-8152884D01*
X18439885Y-8230115D01*
X18517116Y-8230115D01*
X18707616Y-9436616D02*
X18707616Y-9359385D01*
X18630385Y-9359385D01*
X18630385Y-9436616D01*
X18707616Y-9436616D01*
X18707616Y-10706616D02*
X18707616Y-10629385D01*
X18630385Y-10629385D01*
X18630385Y-10706616D01*
X18707616Y-10706616D01*
X18723364Y-13889489D02*
X18723364Y-13812258D01*
X18646133Y-13812258D01*
X18646133Y-13889489D01*
X18723364Y-13889489D01*
X18723364Y-14389615D02*
X18723364Y-14312384D01*
X18646133Y-14312384D01*
X18646133Y-14389615D01*
X18723364Y-14389615D01*
X18961616Y-9436616D02*
X18961616Y-9359385D01*
X18884385Y-9359385D01*
X18884385Y-9436616D01*
X18961616Y-9436616D01*
X19223490Y-13889489D02*
X19223490Y-13812258D01*
X19146259Y-13812258D01*
X19146259Y-13889489D01*
X19223490Y-13889489D01*
X19223490Y-14389615D02*
X19223490Y-14312384D01*
X19146259Y-14312384D01*
X19146259Y-14389615D01*
X19223490Y-14389615D01*
X19469616Y-13119615D02*
X19469616Y-13042384D01*
X19392385Y-13042384D01*
X19392385Y-13119615D01*
X19469616Y-13119615D01*
X19723616Y-13119615D02*
X19723616Y-13042384D01*
X19646385Y-13042384D01*
X19646385Y-13119615D01*
X19723616Y-13119615D01*
X19723616Y-13889489D02*
X19723616Y-13812258D01*
X19646385Y-13812258D01*
X19646385Y-13889489D01*
X19723616Y-13889489D01*
X19723616Y-14389615D02*
X19723616Y-14312384D01*
X19646385Y-14312384D01*
X19646385Y-14389615D01*
X19723616Y-14389615D01*
X19977616Y-10325616D02*
X19977616Y-10248385D01*
X19900385Y-10248385D01*
X19900385Y-10325616D01*
X19977616Y-10325616D01*
X19977616Y-10579616D02*
X19977616Y-10502385D01*
X19900385Y-10502385D01*
X19900385Y-10579616D01*
X19977616Y-10579616D01*
X20104616Y-8420616D02*
X20104616Y-8343384D01*
X20027385Y-8343384D01*
X20027385Y-8420616D01*
X20104616Y-8420616D01*
X20104616Y-8674616D02*
X20104616Y-8597385D01*
X20027385Y-8597385D01*
X20027385Y-8674616D01*
X20104616Y-8674616D01*
X20104616Y-8928616D02*
X20104616Y-8851385D01*
X20027385Y-8851385D01*
X20027385Y-8928616D01*
X20104616Y-8928616D01*
X20104616Y-9182616D02*
X20104616Y-9105385D01*
X20027385Y-9105385D01*
X20027385Y-9182616D01*
X20104616Y-9182616D01*
X21120616Y-9436616D02*
X21120616Y-9359385D01*
X21043385Y-9359385D01*
X21043385Y-9436616D01*
X21120616Y-9436616D01*
X21374616Y-9436616D02*
X21374616Y-9359385D01*
X21297385Y-9359385D01*
X21297385Y-9436616D01*
X21374616Y-9436616D01*
X22144616Y-10456616D02*
X22144616Y-10379385D01*
X22067385Y-10379385D01*
X22067385Y-10456616D01*
X22144616Y-10456616D01*
X22144616Y-10706616D02*
X22144616Y-10629385D01*
X22067385Y-10629385D01*
X22067385Y-10706616D01*
X22144616Y-10706616D01*
X22144616Y-10956616D02*
X22144616Y-10879385D01*
X22067385Y-10879385D01*
X22067385Y-10956616D01*
X22144616Y-10956616D01*
X22144616Y-11853615D02*
X22144616Y-11776384D01*
X22067385Y-11776384D01*
X22067385Y-11853615D01*
X22144616Y-11853615D01*
X22144616Y-12103615D02*
X22144616Y-12026384D01*
X22067385Y-12026384D01*
X22067385Y-12103615D01*
X22144616Y-12103615D01*
X22144616Y-12353615D02*
X22144616Y-12276384D01*
X22067385Y-12276384D01*
X22067385Y-12353615D01*
X22144616Y-12353615D01*
X22263616Y-8547616D02*
X22263616Y-8470385D01*
X22186385Y-8470385D01*
X22186385Y-8547616D01*
X22263616Y-8547616D01*
X22263616Y-8801616D02*
X22263616Y-8724385D01*
X22186385Y-8724385D01*
X22186385Y-8801616D01*
X22263616Y-8801616D01*
X22263616Y-9055616D02*
X22263616Y-8978385D01*
X22186385Y-8978385D01*
X22186385Y-9055616D01*
X22263616Y-9055616D01*
X22263616Y-9309616D02*
X22263616Y-9232385D01*
X22186385Y-9232385D01*
X22186385Y-9309616D01*
X22263616Y-9309616D01*
X22498615Y-13000615D02*
X22498615Y-12923384D01*
X22421384Y-12923384D01*
X22421384Y-13000615D01*
X22498615Y-13000615D01*
X22498615Y-14000615D02*
X22498615Y-13923384D01*
X22421384Y-13923384D01*
X22421384Y-14000615D01*
X22498615Y-14000615D01*
X22924015Y-8776216D02*
X22924015Y-8698985D01*
X22846784Y-8698985D01*
X22846784Y-8776216D01*
X22924015Y-8776216D01*
X22924015Y-9030216D02*
X22924015Y-8952985D01*
X22846784Y-8952985D01*
X22846784Y-9030216D01*
X22924015Y-9030216D01*
X22924015Y-9284216D02*
X22924015Y-9206985D01*
X22846784Y-9206985D01*
X22846784Y-9284216D01*
X22924015Y-9284216D01*
X22998615Y-13500615D02*
X22998615Y-13423384D01*
X22921384Y-13423384D01*
X22921384Y-13500615D01*
X22998615Y-13500615D01*
X4245000Y-5402000D02*
X4335000Y-5312000D01*
X4245000Y-5222000D01*
X4155000Y-5312000D01*
X4245000Y-5402000D01*
X4225000Y-5392000D02*
X4265000Y-5392000D01*
X4225000Y-5232000D02*
X4265000Y-5232000D01*
X4265000Y-5392000D02*
G75*
G03X4265000Y-5232000I0J80000D01*
G01*
X4225000Y-5232000D02*
G75*
G03X4225000Y-5392000I0J-80000D01*
G01*
X4245000Y-6462000D02*
X4335000Y-6372000D01*
X4245000Y-6282000D01*
X4155000Y-6372000D01*
X4245000Y-6462000D01*
X4225000Y-6452000D02*
X4265000Y-6452000D01*
X4225000Y-6292000D02*
X4265000Y-6292000D01*
X4265000Y-6452000D02*
G75*
G03X4265000Y-6292000I0J80000D01*
G01*
X4225000Y-6292000D02*
G75*
G03X4225000Y-6452000I0J-80000D01*
G01*
X4245000Y-8069000D02*
X4335000Y-7979000D01*
X4245000Y-7889000D01*
X4155000Y-7979000D01*
X4245000Y-8069000D01*
X4225000Y-8059000D02*
X4265000Y-8059000D01*
X4225000Y-7899000D02*
X4265000Y-7899000D01*
X4265000Y-8059000D02*
G75*
G03X4265000Y-7899000I0J80000D01*
G01*
X4225000Y-7899000D02*
G75*
G03X4225000Y-8059000I0J-80000D01*
G01*
X4245000Y-9129000D02*
X4335000Y-9039000D01*
X4245000Y-8949000D01*
X4155000Y-9039000D01*
X4245000Y-9129000D01*
X4225000Y-9119000D02*
X4265000Y-9119000D01*
X4225000Y-8959000D02*
X4265000Y-8959000D01*
X4265000Y-9119000D02*
G75*
G03X4265000Y-8959000I0J80000D01*
G01*
X4225000Y-8959000D02*
G75*
G03X4225000Y-9119000I0J-80000D01*
G01*
X4245000Y-11117000D02*
X4335000Y-11027000D01*
X4245000Y-10937000D01*
X4155000Y-11027000D01*
X4245000Y-11117000D01*
X4225000Y-11107000D02*
X4265000Y-11107000D01*
X4225000Y-10947000D02*
X4265000Y-10947000D01*
X4265000Y-11107000D02*
G75*
G03X4265000Y-10947000I0J80000D01*
G01*
X4225000Y-10947000D02*
G75*
G03X4225000Y-11107000I0J-80000D01*
G01*
X4245000Y-12177000D02*
X4335000Y-12087000D01*
X4245000Y-11997000D01*
X4155000Y-12087000D01*
X4245000Y-12177000D01*
X4225000Y-12167000D02*
X4265000Y-12167000D01*
X4225000Y-12007000D02*
X4265000Y-12007000D01*
X4265000Y-12167000D02*
G75*
G03X4265000Y-12007000I0J80000D01*
G01*
X4225000Y-12007000D02*
G75*
G03X4225000Y-12167000I0J-80000D01*
G01*
X4245000Y-13657000D02*
X4335000Y-13567000D01*
X4245000Y-13477000D01*
X4155000Y-13567000D01*
X4245000Y-13657000D01*
X4225000Y-13647000D02*
X4265000Y-13647000D01*
X4225000Y-13487000D02*
X4265000Y-13487000D01*
X4265000Y-13647000D02*
G75*
G03X4265000Y-13487000I0J80000D01*
G01*
X4225000Y-13487000D02*
G75*
G03X4225000Y-13647000I0J-80000D01*
G01*
X4245000Y-14717000D02*
X4335000Y-14627000D01*
X4245000Y-14537000D01*
X4155000Y-14627000D01*
X4245000Y-14717000D01*
X4225000Y-14707000D02*
X4265000Y-14707000D01*
X4225000Y-14547000D02*
X4265000Y-14547000D01*
X4265000Y-14707000D02*
G75*
G03X4265000Y-14547000I0J80000D01*
G01*
X4225000Y-14547000D02*
G75*
G03X4225000Y-14707000I0J-80000D01*
G01*
X7166000Y-5402000D02*
X7256000Y-5312000D01*
X7166000Y-5222000D01*
X7076000Y-5312000D01*
X7166000Y-5402000D01*
X7146000Y-5392000D02*
X7186000Y-5392000D01*
X7146000Y-5232000D02*
X7186000Y-5232000D01*
X7186000Y-5392000D02*
G75*
G03X7186000Y-5232000I0J80000D01*
G01*
X7146000Y-5232000D02*
G75*
G03X7146000Y-5392000I0J-80000D01*
G01*
X7166000Y-6462000D02*
X7256000Y-6372000D01*
X7166000Y-6282000D01*
X7076000Y-6372000D01*
X7166000Y-6462000D01*
X7146000Y-6452000D02*
X7186000Y-6452000D01*
X7146000Y-6292000D02*
X7186000Y-6292000D01*
X7186000Y-6452000D02*
G75*
G03X7186000Y-6292000I0J80000D01*
G01*
X7146000Y-6292000D02*
G75*
G03X7146000Y-6452000I0J-80000D01*
G01*
X7166000Y-13657000D02*
X7256000Y-13567000D01*
X7166000Y-13477000D01*
X7076000Y-13567000D01*
X7166000Y-13657000D01*
X7146000Y-13647000D02*
X7186000Y-13647000D01*
X7146000Y-13487000D02*
X7186000Y-13487000D01*
X7186000Y-13647000D02*
G75*
G03X7186000Y-13487000I0J80000D01*
G01*
X7146000Y-13487000D02*
G75*
G03X7146000Y-13647000I0J-80000D01*
G01*
X7166000Y-14717000D02*
X7256000Y-14627000D01*
X7166000Y-14537000D01*
X7076000Y-14627000D01*
X7166000Y-14717000D01*
X7146000Y-14707000D02*
X7186000Y-14707000D01*
X7146000Y-14547000D02*
X7186000Y-14547000D01*
X7186000Y-14707000D02*
G75*
G03X7186000Y-14547000I0J80000D01*
G01*
X7146000Y-14547000D02*
G75*
G03X7146000Y-14707000I0J-80000D01*
G01*
X15484500Y-6227500D02*
X15574500Y-6137500D01*
X15484500Y-6047500D01*
X15394500Y-6137500D01*
X15484500Y-6227500D01*
X15464500Y-6217500D02*
X15504500Y-6217500D01*
X15464500Y-6057500D02*
X15504500Y-6057500D01*
X15504500Y-6217500D02*
G75*
G03X15504500Y-6057500I0J80000D01*
G01*
X15464500Y-6057500D02*
G75*
G03X15464500Y-6217500I0J-80000D01*
G01*
X15484500Y-7287500D02*
X15574500Y-7197500D01*
X15484500Y-7107500D01*
X15394500Y-7197500D01*
X15484500Y-7287500D01*
X15464500Y-7277500D02*
X15504500Y-7277500D01*
X15464500Y-7117500D02*
X15504500Y-7117500D01*
X15504500Y-7277500D02*
G75*
G03X15504500Y-7117500I0J80000D01*
G01*
X15464500Y-7117500D02*
G75*
G03X15464500Y-7277500I0J-80000D01*
G01*
X16869000Y-14387000D02*
X16959000Y-14297000D01*
X16869000Y-14207000D01*
X16779000Y-14297000D01*
X16869000Y-14387000D01*
X16949000Y-14317000D02*
X16949000Y-14277000D01*
X16789000Y-14317000D02*
X16789000Y-14277000D01*
X16949000Y-14277000D02*
G75*
G03X16789000Y-14277000I-80000J0D01*
G01*
X16789000Y-14317000D02*
G75*
G03X16949000Y-14317000I80000J0D01*
G01*
X17929000Y-14387000D02*
X18019000Y-14297000D01*
X17929000Y-14207000D01*
X17839000Y-14297000D01*
X17929000Y-14387000D01*
X18009000Y-14317000D02*
X18009000Y-14277000D01*
X17849000Y-14317000D02*
X17849000Y-14277000D01*
X18009000Y-14277000D02*
G75*
G03X17849000Y-14277000I-80000J0D01*
G01*
X17849000Y-14317000D02*
G75*
G03X18009000Y-14317000I80000J0D01*
G01*
X22806000Y-10228000D02*
X22896000Y-10138000D01*
X22806000Y-10048000D01*
X22716000Y-10138000D01*
X22806000Y-10228000D01*
X22826000Y-10058000D02*
X22786000Y-10058000D01*
X22826000Y-10218000D02*
X22786000Y-10218000D01*
X22786000Y-10058000D02*
G75*
G03X22786000Y-10218000I0J-80000D01*
G01*
X22826000Y-10218000D02*
G75*
G03X22826000Y-10058000I0J80000D01*
G01*
X22806000Y-11288000D02*
X22896000Y-11198000D01*
X22806000Y-11108000D01*
X22716000Y-11198000D01*
X22806000Y-11288000D01*
X22826000Y-11118000D02*
X22786000Y-11118000D01*
X22826000Y-11278000D02*
X22786000Y-11278000D01*
X22786000Y-11118000D02*
G75*
G03X22786000Y-11278000I0J-80000D01*
G01*
X22826000Y-11278000D02*
G75*
G03X22826000Y-11118000I0J80000D01*
G01*
X22806000Y-11625000D02*
X22896000Y-11535000D01*
X22806000Y-11445000D01*
X22716000Y-11535000D01*
X22806000Y-11625000D01*
X22826000Y-11455000D02*
X22786000Y-11455000D01*
X22826000Y-11615000D02*
X22786000Y-11615000D01*
X22786000Y-11455000D02*
G75*
G03X22786000Y-11615000I0J-80000D01*
G01*
X22826000Y-11615000D02*
G75*
G03X22826000Y-11455000I0J80000D01*
G01*
X22806000Y-12685000D02*
X22896000Y-12595000D01*
X22806000Y-12505000D01*
X22716000Y-12595000D01*
X22806000Y-12685000D01*
X22826000Y-12515000D02*
X22786000Y-12515000D01*
X22826000Y-12675000D02*
X22786000Y-12675000D01*
X22786000Y-12515000D02*
G75*
G03X22786000Y-12675000I0J-80000D01*
G01*
X22826000Y-12675000D02*
G75*
G03X22826000Y-12515000I0J80000D01*
G01*
X5847600Y-5347600D02*
X6152400Y-5652400D01*
X6152400Y-5347600D02*
X5847600Y-5652400D01*
X6152400Y-5500000D02*
G75*
G03X6152400Y-5500000I-152400J0D01*
G01*
X5847600Y-14347600D02*
X6152400Y-14652400D01*
X6152400Y-14347600D02*
X5847600Y-14652400D01*
X6152400Y-14500000D02*
G75*
G03X6152400Y-14500000I-152400J0D01*
G01*
X14847600Y-5347600D02*
X15152400Y-5652400D01*
X15152400Y-5347600D02*
X14847600Y-5652400D01*
X15152400Y-5500000D02*
G75*
G03X15152400Y-5500000I-152400J0D01*
G01*
X14847600Y-14347600D02*
X15152400Y-14652400D01*
X15152400Y-14347600D02*
X14847600Y-14652400D01*
X15152400Y-14500000D02*
G75*
G03X15152400Y-14500000I-152400J0D01*
G01*
X22847600Y-5347600D02*
X23152400Y-5652400D01*
X23152400Y-5347600D02*
X22847600Y-5652400D01*
X23152400Y-5500000D02*
G75*
G03X23152400Y-5500000I-152400J0D01*
G01*
X22847600Y-14347600D02*
X23152400Y-14652400D01*
X23152400Y-14347600D02*
X22847600Y-14652400D01*
X23152400Y-14500000D02*
G75*
G03X23152400Y-14500000I-152400J0D01*
G01*
D13*
X3766428Y-15470714D02*
X3766428Y-15170714D01*
X3837857Y-15170714D01*
X3880714Y-15185000D01*
X3909286Y-15213571D01*
X3923571Y-15242143D01*
X3937857Y-15299286D01*
X3937857Y-15342143D01*
X3923571Y-15399286D01*
X3909286Y-15427857D01*
X3880714Y-15456429D01*
X3837857Y-15470714D01*
X3766428Y-15470714D01*
X4066428Y-15470714D02*
X4066428Y-15270714D01*
X4066428Y-15327857D02*
X4080714Y-15299286D01*
X4095000Y-15285000D01*
X4123571Y-15270714D01*
X4152143Y-15270714D01*
X4252143Y-15470714D02*
X4252143Y-15270714D01*
X4252143Y-15170714D02*
X4237857Y-15185000D01*
X4252143Y-15199286D01*
X4266429Y-15185000D01*
X4252143Y-15170714D01*
X4252143Y-15199286D01*
X4437857Y-15470714D02*
X4409286Y-15456429D01*
X4395000Y-15427857D01*
X4395000Y-15170714D01*
X4595000Y-15470714D02*
X4566429Y-15456429D01*
X4552143Y-15427857D01*
X4552143Y-15170714D01*
X4937857Y-15470714D02*
X4937857Y-15170714D01*
X5037857Y-15385000D01*
X5137857Y-15170714D01*
X5137857Y-15470714D01*
X5409286Y-15470714D02*
X5409286Y-15313571D01*
X5395000Y-15285000D01*
X5366429Y-15270714D01*
X5309286Y-15270714D01*
X5280714Y-15285000D01*
X5409286Y-15456429D02*
X5380714Y-15470714D01*
X5309286Y-15470714D01*
X5280714Y-15456429D01*
X5266429Y-15427857D01*
X5266429Y-15399286D01*
X5280714Y-15370714D01*
X5309286Y-15356429D01*
X5380714Y-15356429D01*
X5409286Y-15342143D01*
X5552143Y-15270714D02*
X5552143Y-15570714D01*
X5552143Y-15285000D02*
X5580714Y-15270714D01*
X5637857Y-15270714D01*
X5666428Y-15285000D01*
X5680714Y-15299286D01*
X5695000Y-15327857D01*
X5695000Y-15413571D01*
X5680714Y-15442143D01*
X5666428Y-15456429D01*
X5637857Y-15470714D01*
X5580714Y-15470714D01*
X5552143Y-15456429D01*
X5823571Y-15442143D02*
X5837857Y-15456429D01*
X5823571Y-15470714D01*
X5809286Y-15456429D01*
X5823571Y-15442143D01*
X5823571Y-15470714D01*
X5823571Y-15285000D02*
X5837857Y-15299286D01*
X5823571Y-15313571D01*
X5809286Y-15299286D01*
X5823571Y-15285000D01*
X5823571Y-15313571D01*
X3455000Y-15945000D02*
X3495000Y-15985000D01*
X3495000Y-15945000D02*
X3455000Y-15985000D01*
X3823571Y-15800714D02*
X3852143Y-15800714D01*
X3880714Y-15815000D01*
X3895000Y-15829286D01*
X3909286Y-15857857D01*
X3923571Y-15915000D01*
X3923571Y-15986429D01*
X3909286Y-16043571D01*
X3895000Y-16072143D01*
X3880714Y-16086429D01*
X3852143Y-16100714D01*
X3823571Y-16100714D01*
X3795000Y-16086429D01*
X3780714Y-16072143D01*
X3766428Y-16043571D01*
X3752143Y-15986429D01*
X3752143Y-15915000D01*
X3766428Y-15857857D01*
X3780714Y-15829286D01*
X3795000Y-15815000D01*
X3823571Y-15800714D01*
X4052143Y-16072143D02*
X4066428Y-16086429D01*
X4052143Y-16100714D01*
X4037857Y-16086429D01*
X4052143Y-16072143D01*
X4052143Y-16100714D01*
X4323571Y-15900714D02*
X4323571Y-16100714D01*
X4252143Y-15786429D02*
X4180714Y-16000714D01*
X4366428Y-16000714D01*
X4537857Y-15800714D02*
X4566429Y-15800714D01*
X4595000Y-15815000D01*
X4609286Y-15829286D01*
X4623571Y-15857857D01*
X4637857Y-15915000D01*
X4637857Y-15986429D01*
X4623571Y-16043571D01*
X4609286Y-16072143D01*
X4595000Y-16086429D01*
X4566429Y-16100714D01*
X4537857Y-16100714D01*
X4509286Y-16086429D01*
X4495000Y-16072143D01*
X4480714Y-16043571D01*
X4466429Y-15986429D01*
X4466429Y-15915000D01*
X4480714Y-15857857D01*
X4495000Y-15829286D01*
X4509286Y-15815000D01*
X4537857Y-15800714D01*
X4766429Y-16100714D02*
X4766429Y-15900714D01*
X4766429Y-15929286D02*
X4780714Y-15915000D01*
X4809286Y-15900714D01*
X4852143Y-15900714D01*
X4880714Y-15915000D01*
X4895000Y-15943571D01*
X4895000Y-16100714D01*
X4895000Y-15943571D02*
X4909286Y-15915000D01*
X4937857Y-15900714D01*
X4980714Y-15900714D01*
X5009286Y-15915000D01*
X5023571Y-15943571D01*
X5023571Y-16100714D01*
X5166429Y-16100714D02*
X5166429Y-15900714D01*
X5166429Y-15929286D02*
X5180714Y-15915000D01*
X5209286Y-15900714D01*
X5252143Y-15900714D01*
X5280714Y-15915000D01*
X5295000Y-15943571D01*
X5295000Y-16100714D01*
X5295000Y-15943571D02*
X5309286Y-15915000D01*
X5337857Y-15900714D01*
X5380714Y-15900714D01*
X5409286Y-15915000D01*
X5423571Y-15943571D01*
X5423571Y-16100714D01*
X6009286Y-15786429D02*
X5752143Y-16172143D01*
X6395000Y-15800714D02*
X6423571Y-15800714D01*
X6452143Y-15815000D01*
X6466428Y-15829286D01*
X6480714Y-15857857D01*
X6495000Y-15915000D01*
X6495000Y-15986429D01*
X6480714Y-16043571D01*
X6466428Y-16072143D01*
X6452143Y-16086429D01*
X6423571Y-16100714D01*
X6395000Y-16100714D01*
X6366428Y-16086429D01*
X6352143Y-16072143D01*
X6337857Y-16043571D01*
X6323571Y-15986429D01*
X6323571Y-15915000D01*
X6337857Y-15857857D01*
X6352143Y-15829286D01*
X6366428Y-15815000D01*
X6395000Y-15800714D01*
X6623571Y-16072143D02*
X6637857Y-16086429D01*
X6623571Y-16100714D01*
X6609286Y-16086429D01*
X6623571Y-16072143D01*
X6623571Y-16100714D01*
X6823571Y-15800714D02*
X6852143Y-15800714D01*
X6880714Y-15815000D01*
X6895000Y-15829286D01*
X6909285Y-15857857D01*
X6923571Y-15915000D01*
X6923571Y-15986429D01*
X6909285Y-16043571D01*
X6895000Y-16072143D01*
X6880714Y-16086429D01*
X6852143Y-16100714D01*
X6823571Y-16100714D01*
X6795000Y-16086429D01*
X6780714Y-16072143D01*
X6766428Y-16043571D01*
X6752143Y-15986429D01*
X6752143Y-15915000D01*
X6766428Y-15857857D01*
X6780714Y-15829286D01*
X6795000Y-15815000D01*
X6823571Y-15800714D01*
X7209285Y-16100714D02*
X7037857Y-16100714D01*
X7123571Y-16100714D02*
X7123571Y-15800714D01*
X7095000Y-15843571D01*
X7066428Y-15872143D01*
X7037857Y-15886429D01*
X7466428Y-15800714D02*
X7409285Y-15800714D01*
X7380714Y-15815000D01*
X7366428Y-15829286D01*
X7337857Y-15872143D01*
X7323571Y-15929286D01*
X7323571Y-16043571D01*
X7337857Y-16072143D01*
X7352143Y-16086429D01*
X7380714Y-16100714D01*
X7437857Y-16100714D01*
X7466428Y-16086429D01*
X7480714Y-16072143D01*
X7495000Y-16043571D01*
X7495000Y-15972143D01*
X7480714Y-15943571D01*
X7466428Y-15929286D01*
X7437857Y-15915000D01*
X7380714Y-15915000D01*
X7352143Y-15929286D01*
X7337857Y-15943571D01*
X7323571Y-15972143D01*
X7609286Y-15800714D02*
X7609286Y-15857857D01*
X7723571Y-15800714D02*
X7723571Y-15857857D01*
X8166428Y-16215000D02*
X8152143Y-16200714D01*
X8123571Y-16157857D01*
X8109285Y-16129286D01*
X8095000Y-16086429D01*
X8080714Y-16015000D01*
X8080714Y-15957857D01*
X8095000Y-15886429D01*
X8109285Y-15843571D01*
X8123571Y-15815000D01*
X8152143Y-15772143D01*
X8166428Y-15757857D01*
X8409286Y-15900714D02*
X8409286Y-16100714D01*
X8337857Y-15786429D02*
X8266428Y-16000714D01*
X8452143Y-16000714D01*
X8795000Y-16100714D02*
X8795000Y-15800714D01*
X8923571Y-16100714D02*
X8923571Y-15943571D01*
X8909286Y-15915000D01*
X8880714Y-15900714D01*
X8837857Y-15900714D01*
X8809286Y-15915000D01*
X8795000Y-15929286D01*
X9109286Y-16100714D02*
X9080714Y-16086429D01*
X9066428Y-16072143D01*
X9052143Y-16043571D01*
X9052143Y-15957857D01*
X9066428Y-15929286D01*
X9080714Y-15915000D01*
X9109286Y-15900714D01*
X9152143Y-15900714D01*
X9180714Y-15915000D01*
X9195000Y-15929286D01*
X9209286Y-15957857D01*
X9209286Y-16043571D01*
X9195000Y-16072143D01*
X9180714Y-16086429D01*
X9152143Y-16100714D01*
X9109286Y-16100714D01*
X9380714Y-16100714D02*
X9352143Y-16086429D01*
X9337857Y-16057857D01*
X9337857Y-15800714D01*
X9609286Y-16086429D02*
X9580714Y-16100714D01*
X9523571Y-16100714D01*
X9495000Y-16086429D01*
X9480714Y-16057857D01*
X9480714Y-15943571D01*
X9495000Y-15915000D01*
X9523571Y-15900714D01*
X9580714Y-15900714D01*
X9609286Y-15915000D01*
X9623571Y-15943571D01*
X9623571Y-15972143D01*
X9480714Y-16000714D01*
X9737857Y-16086429D02*
X9766429Y-16100714D01*
X9823571Y-16100714D01*
X9852143Y-16086429D01*
X9866429Y-16057857D01*
X9866429Y-16043571D01*
X9852143Y-16015000D01*
X9823571Y-16000714D01*
X9780714Y-16000714D01*
X9752143Y-15986429D01*
X9737857Y-15957857D01*
X9737857Y-15943571D01*
X9752143Y-15915000D01*
X9780714Y-15900714D01*
X9823571Y-15900714D01*
X9852143Y-15915000D01*
X9966428Y-16215000D02*
X9980714Y-16200714D01*
X10009286Y-16157857D01*
X10023571Y-16129286D01*
X10037857Y-16086429D01*
X10052143Y-16015000D01*
X10052143Y-15957857D01*
X10037857Y-15886429D01*
X10023571Y-15843571D01*
X10009286Y-15815000D01*
X9980714Y-15772143D01*
X9966428Y-15757857D01*
X3495000Y-16361000D02*
G75*
G03X3495000Y-16361000I-40640J0D01*
G01*
X3823571Y-16196714D02*
X3852143Y-16196714D01*
X3880714Y-16211000D01*
X3895000Y-16225286D01*
X3909286Y-16253857D01*
X3923571Y-16311000D01*
X3923571Y-16382429D01*
X3909286Y-16439571D01*
X3895000Y-16468143D01*
X3880714Y-16482429D01*
X3852143Y-16496714D01*
X3823571Y-16496714D01*
X3795000Y-16482429D01*
X3780714Y-16468143D01*
X3766428Y-16439571D01*
X3752143Y-16382429D01*
X3752143Y-16311000D01*
X3766428Y-16253857D01*
X3780714Y-16225286D01*
X3795000Y-16211000D01*
X3823571Y-16196714D01*
X4052143Y-16468143D02*
X4066428Y-16482429D01*
X4052143Y-16496714D01*
X4037857Y-16482429D01*
X4052143Y-16468143D01*
X4052143Y-16496714D01*
X4237857Y-16325286D02*
X4209286Y-16311000D01*
X4195000Y-16296714D01*
X4180714Y-16268143D01*
X4180714Y-16253857D01*
X4195000Y-16225286D01*
X4209286Y-16211000D01*
X4237857Y-16196714D01*
X4295000Y-16196714D01*
X4323571Y-16211000D01*
X4337857Y-16225286D01*
X4352143Y-16253857D01*
X4352143Y-16268143D01*
X4337857Y-16296714D01*
X4323571Y-16311000D01*
X4295000Y-16325286D01*
X4237857Y-16325286D01*
X4209286Y-16339571D01*
X4195000Y-16353857D01*
X4180714Y-16382429D01*
X4180714Y-16439571D01*
X4195000Y-16468143D01*
X4209286Y-16482429D01*
X4237857Y-16496714D01*
X4295000Y-16496714D01*
X4323571Y-16482429D01*
X4337857Y-16468143D01*
X4352143Y-16439571D01*
X4352143Y-16382429D01*
X4337857Y-16353857D01*
X4323571Y-16339571D01*
X4295000Y-16325286D01*
X4637857Y-16496714D02*
X4466429Y-16496714D01*
X4552143Y-16496714D02*
X4552143Y-16196714D01*
X4523571Y-16239571D01*
X4495000Y-16268143D01*
X4466429Y-16282429D01*
X4766429Y-16496714D02*
X4766429Y-16296714D01*
X4766429Y-16325286D02*
X4780714Y-16311000D01*
X4809286Y-16296714D01*
X4852143Y-16296714D01*
X4880714Y-16311000D01*
X4895000Y-16339571D01*
X4895000Y-16496714D01*
X4895000Y-16339571D02*
X4909286Y-16311000D01*
X4937857Y-16296714D01*
X4980714Y-16296714D01*
X5009286Y-16311000D01*
X5023571Y-16339571D01*
X5023571Y-16496714D01*
X5166429Y-16496714D02*
X5166429Y-16296714D01*
X5166429Y-16325286D02*
X5180714Y-16311000D01*
X5209286Y-16296714D01*
X5252143Y-16296714D01*
X5280714Y-16311000D01*
X5295000Y-16339571D01*
X5295000Y-16496714D01*
X5295000Y-16339571D02*
X5309286Y-16311000D01*
X5337857Y-16296714D01*
X5380714Y-16296714D01*
X5409286Y-16311000D01*
X5423571Y-16339571D01*
X5423571Y-16496714D01*
X6009286Y-16182429D02*
X5752143Y-16568143D01*
X6395000Y-16196714D02*
X6423571Y-16196714D01*
X6452143Y-16211000D01*
X6466428Y-16225286D01*
X6480714Y-16253857D01*
X6495000Y-16311000D01*
X6495000Y-16382429D01*
X6480714Y-16439571D01*
X6466428Y-16468143D01*
X6452143Y-16482429D01*
X6423571Y-16496714D01*
X6395000Y-16496714D01*
X6366428Y-16482429D01*
X6352143Y-16468143D01*
X6337857Y-16439571D01*
X6323571Y-16382429D01*
X6323571Y-16311000D01*
X6337857Y-16253857D01*
X6352143Y-16225286D01*
X6366428Y-16211000D01*
X6395000Y-16196714D01*
X6623571Y-16468143D02*
X6637857Y-16482429D01*
X6623571Y-16496714D01*
X6609286Y-16482429D01*
X6623571Y-16468143D01*
X6623571Y-16496714D01*
X6823571Y-16196714D02*
X6852143Y-16196714D01*
X6880714Y-16211000D01*
X6895000Y-16225286D01*
X6909285Y-16253857D01*
X6923571Y-16311000D01*
X6923571Y-16382429D01*
X6909285Y-16439571D01*
X6895000Y-16468143D01*
X6880714Y-16482429D01*
X6852143Y-16496714D01*
X6823571Y-16496714D01*
X6795000Y-16482429D01*
X6780714Y-16468143D01*
X6766428Y-16439571D01*
X6752143Y-16382429D01*
X6752143Y-16311000D01*
X6766428Y-16253857D01*
X6780714Y-16225286D01*
X6795000Y-16211000D01*
X6823571Y-16196714D01*
X7023571Y-16196714D02*
X7209285Y-16196714D01*
X7109285Y-16311000D01*
X7152143Y-16311000D01*
X7180714Y-16325286D01*
X7195000Y-16339571D01*
X7209285Y-16368143D01*
X7209285Y-16439571D01*
X7195000Y-16468143D01*
X7180714Y-16482429D01*
X7152143Y-16496714D01*
X7066428Y-16496714D01*
X7037857Y-16482429D01*
X7023571Y-16468143D01*
X7323571Y-16225286D02*
X7337857Y-16211000D01*
X7366428Y-16196714D01*
X7437857Y-16196714D01*
X7466428Y-16211000D01*
X7480714Y-16225286D01*
X7495000Y-16253857D01*
X7495000Y-16282429D01*
X7480714Y-16325286D01*
X7309285Y-16496714D01*
X7495000Y-16496714D01*
X7609286Y-16196714D02*
X7609286Y-16253857D01*
X7723571Y-16196714D02*
X7723571Y-16253857D01*
X8166428Y-16611000D02*
X8152143Y-16596714D01*
X8123571Y-16553857D01*
X8109285Y-16525286D01*
X8095000Y-16482429D01*
X8080714Y-16411000D01*
X8080714Y-16353857D01*
X8095000Y-16282429D01*
X8109285Y-16239571D01*
X8123571Y-16211000D01*
X8152143Y-16168143D01*
X8166428Y-16153857D01*
X8252143Y-16196714D02*
X8437857Y-16196714D01*
X8337857Y-16311000D01*
X8380714Y-16311000D01*
X8409286Y-16325286D01*
X8423571Y-16339571D01*
X8437857Y-16368143D01*
X8437857Y-16439571D01*
X8423571Y-16468143D01*
X8409286Y-16482429D01*
X8380714Y-16496714D01*
X8295000Y-16496714D01*
X8266428Y-16482429D01*
X8252143Y-16468143D01*
X8552143Y-16225286D02*
X8566428Y-16211000D01*
X8595000Y-16196714D01*
X8666428Y-16196714D01*
X8695000Y-16211000D01*
X8709286Y-16225286D01*
X8723571Y-16253857D01*
X8723571Y-16282429D01*
X8709286Y-16325286D01*
X8537857Y-16496714D01*
X8723571Y-16496714D01*
X8823571Y-16196714D02*
X9009286Y-16196714D01*
X8909286Y-16311000D01*
X8952143Y-16311000D01*
X8980714Y-16325286D01*
X8995000Y-16339571D01*
X9009286Y-16368143D01*
X9009286Y-16439571D01*
X8995000Y-16468143D01*
X8980714Y-16482429D01*
X8952143Y-16496714D01*
X8866428Y-16496714D01*
X8837857Y-16482429D01*
X8823571Y-16468143D01*
X9366428Y-16496714D02*
X9366428Y-16196714D01*
X9495000Y-16496714D02*
X9495000Y-16339571D01*
X9480714Y-16311000D01*
X9452143Y-16296714D01*
X9409286Y-16296714D01*
X9380714Y-16311000D01*
X9366428Y-16325286D01*
X9680714Y-16496714D02*
X9652143Y-16482429D01*
X9637857Y-16468143D01*
X9623571Y-16439571D01*
X9623571Y-16353857D01*
X9637857Y-16325286D01*
X9652143Y-16311000D01*
X9680714Y-16296714D01*
X9723571Y-16296714D01*
X9752143Y-16311000D01*
X9766428Y-16325286D01*
X9780714Y-16353857D01*
X9780714Y-16439571D01*
X9766428Y-16468143D01*
X9752143Y-16482429D01*
X9723571Y-16496714D01*
X9680714Y-16496714D01*
X9952143Y-16496714D02*
X9923571Y-16482429D01*
X9909286Y-16453857D01*
X9909286Y-16196714D01*
X10180714Y-16482429D02*
X10152143Y-16496714D01*
X10095000Y-16496714D01*
X10066429Y-16482429D01*
X10052143Y-16453857D01*
X10052143Y-16339571D01*
X10066429Y-16311000D01*
X10095000Y-16296714D01*
X10152143Y-16296714D01*
X10180714Y-16311000D01*
X10195000Y-16339571D01*
X10195000Y-16368143D01*
X10052143Y-16396714D01*
X10309286Y-16482429D02*
X10337857Y-16496714D01*
X10395000Y-16496714D01*
X10423571Y-16482429D01*
X10437857Y-16453857D01*
X10437857Y-16439571D01*
X10423571Y-16411000D01*
X10395000Y-16396714D01*
X10352143Y-16396714D01*
X10323571Y-16382429D01*
X10309286Y-16353857D01*
X10309286Y-16339571D01*
X10323571Y-16311000D01*
X10352143Y-16296714D01*
X10395000Y-16296714D01*
X10423571Y-16311000D01*
X10537857Y-16611000D02*
X10552143Y-16596714D01*
X10580714Y-16553857D01*
X10595000Y-16525286D01*
X10609286Y-16482429D01*
X10623571Y-16411000D01*
X10623571Y-16353857D01*
X10609286Y-16282429D01*
X10595000Y-16239571D01*
X10580714Y-16211000D01*
X10552143Y-16168143D01*
X10537857Y-16153857D01*
X3444200Y-16706200D02*
X3444200Y-16807800D01*
X3393400Y-16757000D02*
X3495000Y-16757000D01*
X3923571Y-16892714D02*
X3752143Y-16892714D01*
X3837857Y-16892714D02*
X3837857Y-16592714D01*
X3809286Y-16635571D01*
X3780714Y-16664143D01*
X3752143Y-16678429D01*
X4052143Y-16864143D02*
X4066428Y-16878429D01*
X4052143Y-16892714D01*
X4037857Y-16878429D01*
X4052143Y-16864143D01*
X4052143Y-16892714D01*
X4252143Y-16592714D02*
X4280714Y-16592714D01*
X4309286Y-16607000D01*
X4323571Y-16621286D01*
X4337857Y-16649857D01*
X4352143Y-16707000D01*
X4352143Y-16778429D01*
X4337857Y-16835572D01*
X4323571Y-16864143D01*
X4309286Y-16878429D01*
X4280714Y-16892714D01*
X4252143Y-16892714D01*
X4223571Y-16878429D01*
X4209286Y-16864143D01*
X4195000Y-16835572D01*
X4180714Y-16778429D01*
X4180714Y-16707000D01*
X4195000Y-16649857D01*
X4209286Y-16621286D01*
X4223571Y-16607000D01*
X4252143Y-16592714D01*
X4466429Y-16621286D02*
X4480714Y-16607000D01*
X4509286Y-16592714D01*
X4580714Y-16592714D01*
X4609286Y-16607000D01*
X4623571Y-16621286D01*
X4637857Y-16649857D01*
X4637857Y-16678429D01*
X4623571Y-16721286D01*
X4452143Y-16892714D01*
X4637857Y-16892714D01*
X4766429Y-16892714D02*
X4766429Y-16692714D01*
X4766429Y-16721286D02*
X4780714Y-16707000D01*
X4809286Y-16692714D01*
X4852143Y-16692714D01*
X4880714Y-16707000D01*
X4895000Y-16735571D01*
X4895000Y-16892714D01*
X4895000Y-16735571D02*
X4909286Y-16707000D01*
X4937857Y-16692714D01*
X4980714Y-16692714D01*
X5009286Y-16707000D01*
X5023571Y-16735571D01*
X5023571Y-16892714D01*
X5166429Y-16892714D02*
X5166429Y-16692714D01*
X5166429Y-16721286D02*
X5180714Y-16707000D01*
X5209286Y-16692714D01*
X5252143Y-16692714D01*
X5280714Y-16707000D01*
X5295000Y-16735571D01*
X5295000Y-16892714D01*
X5295000Y-16735571D02*
X5309286Y-16707000D01*
X5337857Y-16692714D01*
X5380714Y-16692714D01*
X5409286Y-16707000D01*
X5423571Y-16735571D01*
X5423571Y-16892714D01*
X6009286Y-16578429D02*
X5752143Y-16964143D01*
X6395000Y-16592714D02*
X6423571Y-16592714D01*
X6452143Y-16607000D01*
X6466428Y-16621286D01*
X6480714Y-16649857D01*
X6495000Y-16707000D01*
X6495000Y-16778429D01*
X6480714Y-16835572D01*
X6466428Y-16864143D01*
X6452143Y-16878429D01*
X6423571Y-16892714D01*
X6395000Y-16892714D01*
X6366428Y-16878429D01*
X6352143Y-16864143D01*
X6337857Y-16835572D01*
X6323571Y-16778429D01*
X6323571Y-16707000D01*
X6337857Y-16649857D01*
X6352143Y-16621286D01*
X6366428Y-16607000D01*
X6395000Y-16592714D01*
X6623571Y-16864143D02*
X6637857Y-16878429D01*
X6623571Y-16892714D01*
X6609286Y-16878429D01*
X6623571Y-16864143D01*
X6623571Y-16892714D01*
X6823571Y-16592714D02*
X6852143Y-16592714D01*
X6880714Y-16607000D01*
X6895000Y-16621286D01*
X6909285Y-16649857D01*
X6923571Y-16707000D01*
X6923571Y-16778429D01*
X6909285Y-16835572D01*
X6895000Y-16864143D01*
X6880714Y-16878429D01*
X6852143Y-16892714D01*
X6823571Y-16892714D01*
X6795000Y-16878429D01*
X6780714Y-16864143D01*
X6766428Y-16835572D01*
X6752143Y-16778429D01*
X6752143Y-16707000D01*
X6766428Y-16649857D01*
X6780714Y-16621286D01*
X6795000Y-16607000D01*
X6823571Y-16592714D01*
X7180714Y-16692714D02*
X7180714Y-16892714D01*
X7109285Y-16578429D02*
X7037857Y-16792714D01*
X7223571Y-16792714D01*
X7395000Y-16592714D02*
X7423571Y-16592714D01*
X7452143Y-16607000D01*
X7466428Y-16621286D01*
X7480714Y-16649857D01*
X7495000Y-16707000D01*
X7495000Y-16778429D01*
X7480714Y-16835572D01*
X7466428Y-16864143D01*
X7452143Y-16878429D01*
X7423571Y-16892714D01*
X7395000Y-16892714D01*
X7366428Y-16878429D01*
X7352143Y-16864143D01*
X7337857Y-16835572D01*
X7323571Y-16778429D01*
X7323571Y-16707000D01*
X7337857Y-16649857D01*
X7352143Y-16621286D01*
X7366428Y-16607000D01*
X7395000Y-16592714D01*
X7609286Y-16592714D02*
X7609286Y-16649857D01*
X7723571Y-16592714D02*
X7723571Y-16649857D01*
X8166428Y-17007000D02*
X8152143Y-16992714D01*
X8123571Y-16949857D01*
X8109285Y-16921286D01*
X8095000Y-16878429D01*
X8080714Y-16807000D01*
X8080714Y-16749857D01*
X8095000Y-16678429D01*
X8109285Y-16635571D01*
X8123571Y-16607000D01*
X8152143Y-16564143D01*
X8166428Y-16549857D01*
X8409286Y-16692714D02*
X8409286Y-16892714D01*
X8337857Y-16578429D02*
X8266428Y-16792714D01*
X8452143Y-16792714D01*
X8537857Y-16592714D02*
X8737857Y-16592714D01*
X8609286Y-16892714D01*
X9080714Y-16892714D02*
X9080714Y-16592714D01*
X9209286Y-16892714D02*
X9209286Y-16735571D01*
X9195000Y-16707000D01*
X9166428Y-16692714D01*
X9123571Y-16692714D01*
X9095000Y-16707000D01*
X9080714Y-16721286D01*
X9395000Y-16892714D02*
X9366428Y-16878429D01*
X9352143Y-16864143D01*
X9337857Y-16835572D01*
X9337857Y-16749857D01*
X9352143Y-16721286D01*
X9366428Y-16707000D01*
X9395000Y-16692714D01*
X9437857Y-16692714D01*
X9466428Y-16707000D01*
X9480714Y-16721286D01*
X9495000Y-16749857D01*
X9495000Y-16835572D01*
X9480714Y-16864143D01*
X9466428Y-16878429D01*
X9437857Y-16892714D01*
X9395000Y-16892714D01*
X9666428Y-16892714D02*
X9637857Y-16878429D01*
X9623571Y-16849857D01*
X9623571Y-16592714D01*
X9895000Y-16878429D02*
X9866429Y-16892714D01*
X9809286Y-16892714D01*
X9780714Y-16878429D01*
X9766429Y-16849857D01*
X9766429Y-16735571D01*
X9780714Y-16707000D01*
X9809286Y-16692714D01*
X9866429Y-16692714D01*
X9895000Y-16707000D01*
X9909286Y-16735571D01*
X9909286Y-16764143D01*
X9766429Y-16792714D01*
X10023571Y-16878429D02*
X10052143Y-16892714D01*
X10109286Y-16892714D01*
X10137857Y-16878429D01*
X10152143Y-16849857D01*
X10152143Y-16835572D01*
X10137857Y-16807000D01*
X10109286Y-16792714D01*
X10066429Y-16792714D01*
X10037857Y-16778429D01*
X10023571Y-16749857D01*
X10023571Y-16735571D01*
X10037857Y-16707000D01*
X10066429Y-16692714D01*
X10109286Y-16692714D01*
X10137857Y-16707000D01*
X10252143Y-17007000D02*
X10266429Y-16992714D01*
X10295000Y-16949857D01*
X10309286Y-16921286D01*
X10323571Y-16878429D01*
X10337857Y-16807000D01*
X10337857Y-16749857D01*
X10323571Y-16678429D01*
X10309286Y-16635571D01*
X10295000Y-16607000D01*
X10266429Y-16564143D01*
X10252143Y-16549857D01*
X3479005Y-17191616D02*
X3479005Y-17114385D01*
X3401774Y-17114385D01*
X3401774Y-17191616D01*
X3479005Y-17191616D01*
X3923571Y-17288714D02*
X3752143Y-17288714D01*
X3837857Y-17288714D02*
X3837857Y-16988714D01*
X3809286Y-17031572D01*
X3780714Y-17060143D01*
X3752143Y-17074429D01*
X4052143Y-17260143D02*
X4066428Y-17274429D01*
X4052143Y-17288714D01*
X4037857Y-17274429D01*
X4052143Y-17260143D01*
X4052143Y-17288714D01*
X4252143Y-16988714D02*
X4280714Y-16988714D01*
X4309286Y-17003000D01*
X4323571Y-17017286D01*
X4337857Y-17045857D01*
X4352143Y-17103000D01*
X4352143Y-17174429D01*
X4337857Y-17231572D01*
X4323571Y-17260143D01*
X4309286Y-17274429D01*
X4280714Y-17288714D01*
X4252143Y-17288714D01*
X4223571Y-17274429D01*
X4209286Y-17260143D01*
X4195000Y-17231572D01*
X4180714Y-17174429D01*
X4180714Y-17103000D01*
X4195000Y-17045857D01*
X4209286Y-17017286D01*
X4223571Y-17003000D01*
X4252143Y-16988714D01*
X4495000Y-17288714D02*
X4552143Y-17288714D01*
X4580714Y-17274429D01*
X4595000Y-17260143D01*
X4623571Y-17217286D01*
X4637857Y-17160143D01*
X4637857Y-17045857D01*
X4623571Y-17017286D01*
X4609286Y-17003000D01*
X4580714Y-16988714D01*
X4523571Y-16988714D01*
X4495000Y-17003000D01*
X4480714Y-17017286D01*
X4466429Y-17045857D01*
X4466429Y-17117286D01*
X4480714Y-17145857D01*
X4495000Y-17160143D01*
X4523571Y-17174429D01*
X4580714Y-17174429D01*
X4609286Y-17160143D01*
X4623571Y-17145857D01*
X4637857Y-17117286D01*
X4766429Y-17288714D02*
X4766429Y-17088714D01*
X4766429Y-17117286D02*
X4780714Y-17103000D01*
X4809286Y-17088714D01*
X4852143Y-17088714D01*
X4880714Y-17103000D01*
X4895000Y-17131572D01*
X4895000Y-17288714D01*
X4895000Y-17131572D02*
X4909286Y-17103000D01*
X4937857Y-17088714D01*
X4980714Y-17088714D01*
X5009286Y-17103000D01*
X5023571Y-17131572D01*
X5023571Y-17288714D01*
X5166429Y-17288714D02*
X5166429Y-17088714D01*
X5166429Y-17117286D02*
X5180714Y-17103000D01*
X5209286Y-17088714D01*
X5252143Y-17088714D01*
X5280714Y-17103000D01*
X5295000Y-17131572D01*
X5295000Y-17288714D01*
X5295000Y-17131572D02*
X5309286Y-17103000D01*
X5337857Y-17088714D01*
X5380714Y-17088714D01*
X5409286Y-17103000D01*
X5423571Y-17131572D01*
X5423571Y-17288714D01*
X6009286Y-16974429D02*
X5752143Y-17360143D01*
X6395000Y-16988714D02*
X6423571Y-16988714D01*
X6452143Y-17003000D01*
X6466428Y-17017286D01*
X6480714Y-17045857D01*
X6495000Y-17103000D01*
X6495000Y-17174429D01*
X6480714Y-17231572D01*
X6466428Y-17260143D01*
X6452143Y-17274429D01*
X6423571Y-17288714D01*
X6395000Y-17288714D01*
X6366428Y-17274429D01*
X6352143Y-17260143D01*
X6337857Y-17231572D01*
X6323571Y-17174429D01*
X6323571Y-17103000D01*
X6337857Y-17045857D01*
X6352143Y-17017286D01*
X6366428Y-17003000D01*
X6395000Y-16988714D01*
X6623571Y-17260143D02*
X6637857Y-17274429D01*
X6623571Y-17288714D01*
X6609286Y-17274429D01*
X6623571Y-17260143D01*
X6623571Y-17288714D01*
X6823571Y-16988714D02*
X6852143Y-16988714D01*
X6880714Y-17003000D01*
X6895000Y-17017286D01*
X6909285Y-17045857D01*
X6923571Y-17103000D01*
X6923571Y-17174429D01*
X6909285Y-17231572D01*
X6895000Y-17260143D01*
X6880714Y-17274429D01*
X6852143Y-17288714D01*
X6823571Y-17288714D01*
X6795000Y-17274429D01*
X6780714Y-17260143D01*
X6766428Y-17231572D01*
X6752143Y-17174429D01*
X6752143Y-17103000D01*
X6766428Y-17045857D01*
X6780714Y-17017286D01*
X6795000Y-17003000D01*
X6823571Y-16988714D01*
X7180714Y-17088714D02*
X7180714Y-17288714D01*
X7109285Y-16974429D02*
X7037857Y-17188714D01*
X7223571Y-17188714D01*
X7309285Y-16988714D02*
X7495000Y-16988714D01*
X7395000Y-17103000D01*
X7437857Y-17103000D01*
X7466428Y-17117286D01*
X7480714Y-17131572D01*
X7495000Y-17160143D01*
X7495000Y-17231572D01*
X7480714Y-17260143D01*
X7466428Y-17274429D01*
X7437857Y-17288714D01*
X7352143Y-17288714D01*
X7323571Y-17274429D01*
X7309285Y-17260143D01*
X7609286Y-16988714D02*
X7609286Y-17045857D01*
X7723571Y-16988714D02*
X7723571Y-17045857D01*
X8166428Y-17403000D02*
X8152143Y-17388714D01*
X8123571Y-17345857D01*
X8109285Y-17317286D01*
X8095000Y-17274429D01*
X8080714Y-17203000D01*
X8080714Y-17145857D01*
X8095000Y-17074429D01*
X8109285Y-17031572D01*
X8123571Y-17003000D01*
X8152143Y-16960143D01*
X8166428Y-16945857D01*
X8266428Y-17017286D02*
X8280714Y-17003000D01*
X8309285Y-16988714D01*
X8380714Y-16988714D01*
X8409286Y-17003000D01*
X8423571Y-17017286D01*
X8437857Y-17045857D01*
X8437857Y-17074429D01*
X8423571Y-17117286D01*
X8252143Y-17288714D01*
X8437857Y-17288714D01*
X8723571Y-17288714D02*
X8552143Y-17288714D01*
X8637857Y-17288714D02*
X8637857Y-16988714D01*
X8609286Y-17031572D01*
X8580714Y-17060143D01*
X8552143Y-17074429D01*
X8995000Y-16988714D02*
X8852143Y-16988714D01*
X8837857Y-17131572D01*
X8852143Y-17117286D01*
X8880714Y-17103000D01*
X8952143Y-17103000D01*
X8980714Y-17117286D01*
X8995000Y-17131572D01*
X9009286Y-17160143D01*
X9009286Y-17231572D01*
X8995000Y-17260143D01*
X8980714Y-17274429D01*
X8952143Y-17288714D01*
X8880714Y-17288714D01*
X8852143Y-17274429D01*
X8837857Y-17260143D01*
X9366428Y-17288714D02*
X9366428Y-16988714D01*
X9495000Y-17288714D02*
X9495000Y-17131572D01*
X9480714Y-17103000D01*
X9452143Y-17088714D01*
X9409286Y-17088714D01*
X9380714Y-17103000D01*
X9366428Y-17117286D01*
X9680714Y-17288714D02*
X9652143Y-17274429D01*
X9637857Y-17260143D01*
X9623571Y-17231572D01*
X9623571Y-17145857D01*
X9637857Y-17117286D01*
X9652143Y-17103000D01*
X9680714Y-17088714D01*
X9723571Y-17088714D01*
X9752143Y-17103000D01*
X9766428Y-17117286D01*
X9780714Y-17145857D01*
X9780714Y-17231572D01*
X9766428Y-17260143D01*
X9752143Y-17274429D01*
X9723571Y-17288714D01*
X9680714Y-17288714D01*
X9952143Y-17288714D02*
X9923571Y-17274429D01*
X9909286Y-17245857D01*
X9909286Y-16988714D01*
X10180714Y-17274429D02*
X10152143Y-17288714D01*
X10095000Y-17288714D01*
X10066429Y-17274429D01*
X10052143Y-17245857D01*
X10052143Y-17131572D01*
X10066429Y-17103000D01*
X10095000Y-17088714D01*
X10152143Y-17088714D01*
X10180714Y-17103000D01*
X10195000Y-17131572D01*
X10195000Y-17160143D01*
X10052143Y-17188714D01*
X10309286Y-17274429D02*
X10337857Y-17288714D01*
X10395000Y-17288714D01*
X10423571Y-17274429D01*
X10437857Y-17245857D01*
X10437857Y-17231572D01*
X10423571Y-17203000D01*
X10395000Y-17188714D01*
X10352143Y-17188714D01*
X10323571Y-17174429D01*
X10309286Y-17145857D01*
X10309286Y-17131572D01*
X10323571Y-17103000D01*
X10352143Y-17088714D01*
X10395000Y-17088714D01*
X10423571Y-17103000D01*
X10537857Y-17403000D02*
X10552143Y-17388714D01*
X10580714Y-17345857D01*
X10595000Y-17317286D01*
X10609286Y-17274429D01*
X10623571Y-17203000D01*
X10623571Y-17145857D01*
X10609286Y-17074429D01*
X10595000Y-17031572D01*
X10580714Y-17003000D01*
X10552143Y-16960143D01*
X10537857Y-16945857D01*
X3405000Y-17639000D02*
X3495000Y-17549000D01*
X3405000Y-17459000D01*
X3315000Y-17549000D01*
X3405000Y-17639000D01*
X3923571Y-17684714D02*
X3752143Y-17684714D01*
X3837857Y-17684714D02*
X3837857Y-17384714D01*
X3809286Y-17427572D01*
X3780714Y-17456143D01*
X3752143Y-17470429D01*
X4052143Y-17656143D02*
X4066428Y-17670429D01*
X4052143Y-17684714D01*
X4037857Y-17670429D01*
X4052143Y-17656143D01*
X4052143Y-17684714D01*
X4237857Y-17513286D02*
X4209286Y-17499000D01*
X4195000Y-17484714D01*
X4180714Y-17456143D01*
X4180714Y-17441857D01*
X4195000Y-17413286D01*
X4209286Y-17399000D01*
X4237857Y-17384714D01*
X4295000Y-17384714D01*
X4323571Y-17399000D01*
X4337857Y-17413286D01*
X4352143Y-17441857D01*
X4352143Y-17456143D01*
X4337857Y-17484714D01*
X4323571Y-17499000D01*
X4295000Y-17513286D01*
X4237857Y-17513286D01*
X4209286Y-17527572D01*
X4195000Y-17541857D01*
X4180714Y-17570429D01*
X4180714Y-17627572D01*
X4195000Y-17656143D01*
X4209286Y-17670429D01*
X4237857Y-17684714D01*
X4295000Y-17684714D01*
X4323571Y-17670429D01*
X4337857Y-17656143D01*
X4352143Y-17627572D01*
X4352143Y-17570429D01*
X4337857Y-17541857D01*
X4323571Y-17527572D01*
X4295000Y-17513286D01*
X4537857Y-17384714D02*
X4566429Y-17384714D01*
X4595000Y-17399000D01*
X4609286Y-17413286D01*
X4623571Y-17441857D01*
X4637857Y-17499000D01*
X4637857Y-17570429D01*
X4623571Y-17627572D01*
X4609286Y-17656143D01*
X4595000Y-17670429D01*
X4566429Y-17684714D01*
X4537857Y-17684714D01*
X4509286Y-17670429D01*
X4495000Y-17656143D01*
X4480714Y-17627572D01*
X4466429Y-17570429D01*
X4466429Y-17499000D01*
X4480714Y-17441857D01*
X4495000Y-17413286D01*
X4509286Y-17399000D01*
X4537857Y-17384714D01*
X4766429Y-17684714D02*
X4766429Y-17484714D01*
X4766429Y-17513286D02*
X4780714Y-17499000D01*
X4809286Y-17484714D01*
X4852143Y-17484714D01*
X4880714Y-17499000D01*
X4895000Y-17527572D01*
X4895000Y-17684714D01*
X4895000Y-17527572D02*
X4909286Y-17499000D01*
X4937857Y-17484714D01*
X4980714Y-17484714D01*
X5009286Y-17499000D01*
X5023571Y-17527572D01*
X5023571Y-17684714D01*
X5166429Y-17684714D02*
X5166429Y-17484714D01*
X5166429Y-17513286D02*
X5180714Y-17499000D01*
X5209286Y-17484714D01*
X5252143Y-17484714D01*
X5280714Y-17499000D01*
X5295000Y-17527572D01*
X5295000Y-17684714D01*
X5295000Y-17527572D02*
X5309286Y-17499000D01*
X5337857Y-17484714D01*
X5380714Y-17484714D01*
X5409286Y-17499000D01*
X5423571Y-17527572D01*
X5423571Y-17684714D01*
X6009286Y-17370429D02*
X5752143Y-17756143D01*
X6395000Y-17384714D02*
X6423571Y-17384714D01*
X6452143Y-17399000D01*
X6466428Y-17413286D01*
X6480714Y-17441857D01*
X6495000Y-17499000D01*
X6495000Y-17570429D01*
X6480714Y-17627572D01*
X6466428Y-17656143D01*
X6452143Y-17670429D01*
X6423571Y-17684714D01*
X6395000Y-17684714D01*
X6366428Y-17670429D01*
X6352143Y-17656143D01*
X6337857Y-17627572D01*
X6323571Y-17570429D01*
X6323571Y-17499000D01*
X6337857Y-17441857D01*
X6352143Y-17413286D01*
X6366428Y-17399000D01*
X6395000Y-17384714D01*
X6623571Y-17656143D02*
X6637857Y-17670429D01*
X6623571Y-17684714D01*
X6609286Y-17670429D01*
X6623571Y-17656143D01*
X6623571Y-17684714D01*
X6823571Y-17384714D02*
X6852143Y-17384714D01*
X6880714Y-17399000D01*
X6895000Y-17413286D01*
X6909285Y-17441857D01*
X6923571Y-17499000D01*
X6923571Y-17570429D01*
X6909285Y-17627572D01*
X6895000Y-17656143D01*
X6880714Y-17670429D01*
X6852143Y-17684714D01*
X6823571Y-17684714D01*
X6795000Y-17670429D01*
X6780714Y-17656143D01*
X6766428Y-17627572D01*
X6752143Y-17570429D01*
X6752143Y-17499000D01*
X6766428Y-17441857D01*
X6780714Y-17413286D01*
X6795000Y-17399000D01*
X6823571Y-17384714D01*
X7023571Y-17384714D02*
X7223571Y-17384714D01*
X7095000Y-17684714D01*
X7495000Y-17684714D02*
X7323571Y-17684714D01*
X7409285Y-17684714D02*
X7409285Y-17384714D01*
X7380714Y-17427572D01*
X7352143Y-17456143D01*
X7323571Y-17470429D01*
X7609286Y-17384714D02*
X7609286Y-17441857D01*
X7723571Y-17384714D02*
X7723571Y-17441857D01*
X8166428Y-17799000D02*
X8152143Y-17784714D01*
X8123571Y-17741857D01*
X8109285Y-17713286D01*
X8095000Y-17670429D01*
X8080714Y-17599000D01*
X8080714Y-17541857D01*
X8095000Y-17470429D01*
X8109285Y-17427572D01*
X8123571Y-17399000D01*
X8152143Y-17356143D01*
X8166428Y-17341857D01*
X8337857Y-17384714D02*
X8366428Y-17384714D01*
X8395000Y-17399000D01*
X8409286Y-17413286D01*
X8423571Y-17441857D01*
X8437857Y-17499000D01*
X8437857Y-17570429D01*
X8423571Y-17627572D01*
X8409286Y-17656143D01*
X8395000Y-17670429D01*
X8366428Y-17684714D01*
X8337857Y-17684714D01*
X8309285Y-17670429D01*
X8295000Y-17656143D01*
X8280714Y-17627572D01*
X8266428Y-17570429D01*
X8266428Y-17499000D01*
X8280714Y-17441857D01*
X8295000Y-17413286D01*
X8309285Y-17399000D01*
X8337857Y-17384714D01*
X8795000Y-17684714D02*
X8795000Y-17384714D01*
X8923571Y-17684714D02*
X8923571Y-17527572D01*
X8909286Y-17499000D01*
X8880714Y-17484714D01*
X8837857Y-17484714D01*
X8809286Y-17499000D01*
X8795000Y-17513286D01*
X9109286Y-17684714D02*
X9080714Y-17670429D01*
X9066428Y-17656143D01*
X9052143Y-17627572D01*
X9052143Y-17541857D01*
X9066428Y-17513286D01*
X9080714Y-17499000D01*
X9109286Y-17484714D01*
X9152143Y-17484714D01*
X9180714Y-17499000D01*
X9195000Y-17513286D01*
X9209286Y-17541857D01*
X9209286Y-17627572D01*
X9195000Y-17656143D01*
X9180714Y-17670429D01*
X9152143Y-17684714D01*
X9109286Y-17684714D01*
X9380714Y-17684714D02*
X9352143Y-17670429D01*
X9337857Y-17641857D01*
X9337857Y-17384714D01*
X9609286Y-17670429D02*
X9580714Y-17684714D01*
X9523571Y-17684714D01*
X9495000Y-17670429D01*
X9480714Y-17641857D01*
X9480714Y-17527572D01*
X9495000Y-17499000D01*
X9523571Y-17484714D01*
X9580714Y-17484714D01*
X9609286Y-17499000D01*
X9623571Y-17527572D01*
X9623571Y-17556143D01*
X9480714Y-17584714D01*
X9737857Y-17670429D02*
X9766429Y-17684714D01*
X9823571Y-17684714D01*
X9852143Y-17670429D01*
X9866429Y-17641857D01*
X9866429Y-17627572D01*
X9852143Y-17599000D01*
X9823571Y-17584714D01*
X9780714Y-17584714D01*
X9752143Y-17570429D01*
X9737857Y-17541857D01*
X9737857Y-17527572D01*
X9752143Y-17499000D01*
X9780714Y-17484714D01*
X9823571Y-17484714D01*
X9852143Y-17499000D01*
X10223571Y-17570429D02*
X10452143Y-17570429D01*
X10337857Y-17684714D02*
X10337857Y-17456143D01*
X10809286Y-17413286D02*
X10823571Y-17399000D01*
X10852143Y-17384714D01*
X10923571Y-17384714D01*
X10952143Y-17399000D01*
X10966428Y-17413286D01*
X10980714Y-17441857D01*
X10980714Y-17470429D01*
X10966428Y-17513286D01*
X10795000Y-17684714D01*
X10980714Y-17684714D01*
X11166428Y-17384714D02*
X11195000Y-17384714D01*
X11223571Y-17399000D01*
X11237857Y-17413286D01*
X11252143Y-17441857D01*
X11266428Y-17499000D01*
X11266428Y-17570429D01*
X11252143Y-17627572D01*
X11237857Y-17656143D01*
X11223571Y-17670429D01*
X11195000Y-17684714D01*
X11166428Y-17684714D01*
X11137857Y-17670429D01*
X11123571Y-17656143D01*
X11109286Y-17627572D01*
X11095000Y-17570429D01*
X11095000Y-17499000D01*
X11109286Y-17441857D01*
X11123571Y-17413286D01*
X11137857Y-17399000D01*
X11166428Y-17384714D01*
X11609286Y-17670429D02*
X11637857Y-17684714D01*
X11695000Y-17684714D01*
X11723571Y-17670429D01*
X11737857Y-17641857D01*
X11737857Y-17627572D01*
X11723571Y-17599000D01*
X11695000Y-17584714D01*
X11652143Y-17584714D01*
X11623571Y-17570429D01*
X11609286Y-17541857D01*
X11609286Y-17527572D01*
X11623571Y-17499000D01*
X11652143Y-17484714D01*
X11695000Y-17484714D01*
X11723571Y-17499000D01*
X11909285Y-17684714D02*
X11880714Y-17670429D01*
X11866428Y-17641857D01*
X11866428Y-17384714D01*
X12066428Y-17684714D02*
X12037857Y-17670429D01*
X12023571Y-17656143D01*
X12009286Y-17627572D01*
X12009286Y-17541857D01*
X12023571Y-17513286D01*
X12037857Y-17499000D01*
X12066428Y-17484714D01*
X12109286Y-17484714D01*
X12137857Y-17499000D01*
X12152143Y-17513286D01*
X12166428Y-17541857D01*
X12166428Y-17627572D01*
X12152143Y-17656143D01*
X12137857Y-17670429D01*
X12109286Y-17684714D01*
X12066428Y-17684714D01*
X12252143Y-17484714D02*
X12366428Y-17484714D01*
X12295000Y-17384714D02*
X12295000Y-17641857D01*
X12309286Y-17670429D01*
X12337857Y-17684714D01*
X12366428Y-17684714D01*
X12452143Y-17670429D02*
X12480714Y-17684714D01*
X12537857Y-17684714D01*
X12566428Y-17670429D01*
X12580714Y-17641857D01*
X12580714Y-17627572D01*
X12566428Y-17599000D01*
X12537857Y-17584714D01*
X12495000Y-17584714D01*
X12466428Y-17570429D01*
X12452143Y-17541857D01*
X12452143Y-17527572D01*
X12466428Y-17499000D01*
X12495000Y-17484714D01*
X12537857Y-17484714D01*
X12566428Y-17499000D01*
X12680714Y-17799000D02*
X12695000Y-17784714D01*
X12723571Y-17741857D01*
X12737857Y-17713286D01*
X12752143Y-17670429D01*
X12766428Y-17599000D01*
X12766428Y-17541857D01*
X12752143Y-17470429D01*
X12737857Y-17427572D01*
X12723571Y-17399000D01*
X12695000Y-17356143D01*
X12680714Y-17341857D01*
X3190200Y-17792600D02*
X3495000Y-18097400D01*
X3495000Y-17792600D02*
X3190200Y-18097400D01*
X3495000Y-17945000D02*
G75*
G03X3495000Y-17945000I-152400J0D01*
G01*
X3737857Y-17780714D02*
X3923571Y-17780714D01*
X3823571Y-17895000D01*
X3866428Y-17895000D01*
X3895000Y-17909286D01*
X3909286Y-17923572D01*
X3923571Y-17952143D01*
X3923571Y-18023572D01*
X3909286Y-18052143D01*
X3895000Y-18066429D01*
X3866428Y-18080714D01*
X3780714Y-18080714D01*
X3752143Y-18066429D01*
X3737857Y-18052143D01*
X4052143Y-18052143D02*
X4066428Y-18066429D01*
X4052143Y-18080714D01*
X4037857Y-18066429D01*
X4052143Y-18052143D01*
X4052143Y-18080714D01*
X4252143Y-17780714D02*
X4280714Y-17780714D01*
X4309286Y-17795000D01*
X4323571Y-17809286D01*
X4337857Y-17837857D01*
X4352143Y-17895000D01*
X4352143Y-17966429D01*
X4337857Y-18023572D01*
X4323571Y-18052143D01*
X4309286Y-18066429D01*
X4280714Y-18080714D01*
X4252143Y-18080714D01*
X4223571Y-18066429D01*
X4209286Y-18052143D01*
X4195000Y-18023572D01*
X4180714Y-17966429D01*
X4180714Y-17895000D01*
X4195000Y-17837857D01*
X4209286Y-17809286D01*
X4223571Y-17795000D01*
X4252143Y-17780714D01*
X4623571Y-17780714D02*
X4480714Y-17780714D01*
X4466429Y-17923572D01*
X4480714Y-17909286D01*
X4509286Y-17895000D01*
X4580714Y-17895000D01*
X4609286Y-17909286D01*
X4623571Y-17923572D01*
X4637857Y-17952143D01*
X4637857Y-18023572D01*
X4623571Y-18052143D01*
X4609286Y-18066429D01*
X4580714Y-18080714D01*
X4509286Y-18080714D01*
X4480714Y-18066429D01*
X4466429Y-18052143D01*
X4766429Y-18080714D02*
X4766429Y-17880714D01*
X4766429Y-17909286D02*
X4780714Y-17895000D01*
X4809286Y-17880714D01*
X4852143Y-17880714D01*
X4880714Y-17895000D01*
X4895000Y-17923572D01*
X4895000Y-18080714D01*
X4895000Y-17923572D02*
X4909286Y-17895000D01*
X4937857Y-17880714D01*
X4980714Y-17880714D01*
X5009286Y-17895000D01*
X5023571Y-17923572D01*
X5023571Y-18080714D01*
X5166429Y-18080714D02*
X5166429Y-17880714D01*
X5166429Y-17909286D02*
X5180714Y-17895000D01*
X5209286Y-17880714D01*
X5252143Y-17880714D01*
X5280714Y-17895000D01*
X5295000Y-17923572D01*
X5295000Y-18080714D01*
X5295000Y-17923572D02*
X5309286Y-17895000D01*
X5337857Y-17880714D01*
X5380714Y-17880714D01*
X5409286Y-17895000D01*
X5423571Y-17923572D01*
X5423571Y-18080714D01*
X6009286Y-17766429D02*
X5752143Y-18152143D01*
X6395000Y-17780714D02*
X6423571Y-17780714D01*
X6452143Y-17795000D01*
X6466428Y-17809286D01*
X6480714Y-17837857D01*
X6495000Y-17895000D01*
X6495000Y-17966429D01*
X6480714Y-18023572D01*
X6466428Y-18052143D01*
X6452143Y-18066429D01*
X6423571Y-18080714D01*
X6395000Y-18080714D01*
X6366428Y-18066429D01*
X6352143Y-18052143D01*
X6337857Y-18023572D01*
X6323571Y-17966429D01*
X6323571Y-17895000D01*
X6337857Y-17837857D01*
X6352143Y-17809286D01*
X6366428Y-17795000D01*
X6395000Y-17780714D01*
X6623571Y-18052143D02*
X6637857Y-18066429D01*
X6623571Y-18080714D01*
X6609286Y-18066429D01*
X6623571Y-18052143D01*
X6623571Y-18080714D01*
X6923571Y-18080714D02*
X6752143Y-18080714D01*
X6837857Y-18080714D02*
X6837857Y-17780714D01*
X6809285Y-17823572D01*
X6780714Y-17852143D01*
X6752143Y-17866429D01*
X7037857Y-17809286D02*
X7052143Y-17795000D01*
X7080714Y-17780714D01*
X7152143Y-17780714D01*
X7180714Y-17795000D01*
X7195000Y-17809286D01*
X7209285Y-17837857D01*
X7209285Y-17866429D01*
X7195000Y-17909286D01*
X7023571Y-18080714D01*
X7209285Y-18080714D01*
X7395000Y-17780714D02*
X7423571Y-17780714D01*
X7452143Y-17795000D01*
X7466428Y-17809286D01*
X7480714Y-17837857D01*
X7495000Y-17895000D01*
X7495000Y-17966429D01*
X7480714Y-18023572D01*
X7466428Y-18052143D01*
X7452143Y-18066429D01*
X7423571Y-18080714D01*
X7395000Y-18080714D01*
X7366428Y-18066429D01*
X7352143Y-18052143D01*
X7337857Y-18023572D01*
X7323571Y-17966429D01*
X7323571Y-17895000D01*
X7337857Y-17837857D01*
X7352143Y-17809286D01*
X7366428Y-17795000D01*
X7395000Y-17780714D01*
X7609286Y-17780714D02*
X7609286Y-17837857D01*
X7723571Y-17780714D02*
X7723571Y-17837857D01*
X8166428Y-18195000D02*
X8152143Y-18180714D01*
X8123571Y-18137857D01*
X8109285Y-18109286D01*
X8095000Y-18066429D01*
X8080714Y-17995000D01*
X8080714Y-17937857D01*
X8095000Y-17866429D01*
X8109285Y-17823572D01*
X8123571Y-17795000D01*
X8152143Y-17752143D01*
X8166428Y-17737857D01*
X8409286Y-17780714D02*
X8352143Y-17780714D01*
X8323571Y-17795000D01*
X8309285Y-17809286D01*
X8280714Y-17852143D01*
X8266428Y-17909286D01*
X8266428Y-18023572D01*
X8280714Y-18052143D01*
X8295000Y-18066429D01*
X8323571Y-18080714D01*
X8380714Y-18080714D01*
X8409286Y-18066429D01*
X8423571Y-18052143D01*
X8437857Y-18023572D01*
X8437857Y-17952143D01*
X8423571Y-17923572D01*
X8409286Y-17909286D01*
X8380714Y-17895000D01*
X8323571Y-17895000D01*
X8295000Y-17909286D01*
X8280714Y-17923572D01*
X8266428Y-17952143D01*
X8795000Y-18080714D02*
X8795000Y-17780714D01*
X8923571Y-18080714D02*
X8923571Y-17923572D01*
X8909286Y-17895000D01*
X8880714Y-17880714D01*
X8837857Y-17880714D01*
X8809286Y-17895000D01*
X8795000Y-17909286D01*
X9109286Y-18080714D02*
X9080714Y-18066429D01*
X9066428Y-18052143D01*
X9052143Y-18023572D01*
X9052143Y-17937857D01*
X9066428Y-17909286D01*
X9080714Y-17895000D01*
X9109286Y-17880714D01*
X9152143Y-17880714D01*
X9180714Y-17895000D01*
X9195000Y-17909286D01*
X9209286Y-17937857D01*
X9209286Y-18023572D01*
X9195000Y-18052143D01*
X9180714Y-18066429D01*
X9152143Y-18080714D01*
X9109286Y-18080714D01*
X9380714Y-18080714D02*
X9352143Y-18066429D01*
X9337857Y-18037857D01*
X9337857Y-17780714D01*
X9609286Y-18066429D02*
X9580714Y-18080714D01*
X9523571Y-18080714D01*
X9495000Y-18066429D01*
X9480714Y-18037857D01*
X9480714Y-17923572D01*
X9495000Y-17895000D01*
X9523571Y-17880714D01*
X9580714Y-17880714D01*
X9609286Y-17895000D01*
X9623571Y-17923572D01*
X9623571Y-17952143D01*
X9480714Y-17980714D01*
X9737857Y-18066429D02*
X9766429Y-18080714D01*
X9823571Y-18080714D01*
X9852143Y-18066429D01*
X9866429Y-18037857D01*
X9866429Y-18023572D01*
X9852143Y-17995000D01*
X9823571Y-17980714D01*
X9780714Y-17980714D01*
X9752143Y-17966429D01*
X9737857Y-17937857D01*
X9737857Y-17923572D01*
X9752143Y-17895000D01*
X9780714Y-17880714D01*
X9823571Y-17880714D01*
X9852143Y-17895000D01*
X9966428Y-18195000D02*
X9980714Y-18180714D01*
X10009286Y-18137857D01*
X10023571Y-18109286D01*
X10037857Y-18066429D01*
X10052143Y-17995000D01*
X10052143Y-17937857D01*
X10037857Y-17866429D01*
X10023571Y-17823572D01*
X10009286Y-17795000D01*
X9980714Y-17752143D01*
X9966428Y-17737857D01*
M02*
