G04 #@! TF.FileFunction,Soldermask,Bot*
%FSLAX46Y46*%
G04 Gerber Fmt 4.6, Leading zero omitted, Abs format (unit mm)*
G04 Created by KiCad (PCBNEW (2015-04-14 BZR 5600)-product) date Fri 15 May 2015 04:29:23 PM CEST*
%MOMM*%
G01*
G04 APERTURE LIST*
%ADD10C,0.100000*%
%ADD11C,2.032000*%
%ADD12R,1.778000X1.524000*%
%ADD13C,1.778000*%
%ADD14C,2.499360*%
%ADD15R,1.727200X1.727200*%
%ADD16O,1.727200X2.032000*%
%ADD17R,2.286000X1.727200*%
%ADD18O,2.286000X1.727200*%
%ADD19O,1.727200X2.286000*%
%ADD20R,1.727200X2.032000*%
%ADD21R,1.651000X1.651000*%
%ADD22O,1.397000X2.032000*%
%ADD23R,2.286000X1.699260*%
%ADD24R,1.574800X2.286000*%
%ADD25O,1.574800X2.286000*%
%ADD26R,2.286000X1.574800*%
%ADD27O,2.286000X1.574800*%
%ADD28O,2.540000X1.778000*%
%ADD29R,1.727200X2.286000*%
%ADD30O,2.286000X1.524000*%
%ADD31R,2.032000X2.286000*%
%ADD32O,2.032000X2.286000*%
%ADD33R,2.286000X2.032000*%
%ADD34O,2.286000X2.032000*%
%ADD35R,2.032000X2.032000*%
%ADD36O,2.032000X1.727200*%
%ADD37C,4.064000*%
%ADD38O,2.524000X1.524000*%
%ADD39O,2.800000X2.400000*%
%ADD40O,1.524000X2.524000*%
%ADD41O,2.400000X2.800000*%
G04 APERTURE END LIST*
D10*
X235000000Y-50000000D02*
X35000000Y-50000000D01*
X235000000Y-150000000D02*
X235000000Y-50000000D01*
X35000000Y-150000000D02*
X235000000Y-150000000D01*
X35000000Y-50000000D02*
X35000000Y-150000000D01*
D11*
X168910000Y-132080000D03*
X171450000Y-132080000D03*
D12*
X63500000Y-106680000D03*
D13*
X63500000Y-109220000D03*
X63500000Y-111760000D03*
D14*
X186847480Y-138508740D03*
X191848740Y-138508740D03*
X196850000Y-138508740D03*
X191848740Y-143510000D03*
X186847480Y-143510000D03*
X196850000Y-143510000D03*
D11*
X184785000Y-61595000D03*
X184785000Y-59055000D03*
D15*
X127000000Y-102870000D03*
D16*
X127000000Y-105410000D03*
X124460000Y-102870000D03*
X124460000Y-105410000D03*
X121920000Y-102870000D03*
X121920000Y-105410000D03*
X119380000Y-102870000D03*
X119380000Y-105410000D03*
X116840000Y-102870000D03*
X116840000Y-105410000D03*
X114300000Y-102870000D03*
X114300000Y-105410000D03*
X111760000Y-102870000D03*
X111760000Y-105410000D03*
X109220000Y-102870000D03*
X109220000Y-105410000D03*
D17*
X78740000Y-93980000D03*
D18*
X81280000Y-93980000D03*
X78740000Y-96520000D03*
X81280000Y-96520000D03*
X78740000Y-99060000D03*
X81280000Y-99060000D03*
X78740000Y-101600000D03*
X81280000Y-101600000D03*
X78740000Y-104140000D03*
X81280000Y-104140000D03*
X78740000Y-106680000D03*
X81280000Y-106680000D03*
D17*
X60960000Y-121920000D03*
D18*
X63500000Y-121920000D03*
X60960000Y-124460000D03*
X63500000Y-124460000D03*
X60960000Y-127000000D03*
X63500000Y-127000000D03*
D17*
X78740000Y-121920000D03*
D18*
X81280000Y-121920000D03*
X78740000Y-124460000D03*
X81280000Y-124460000D03*
X78740000Y-127000000D03*
X81280000Y-127000000D03*
D17*
X60960000Y-73660000D03*
D18*
X63500000Y-73660000D03*
X60960000Y-76200000D03*
X63500000Y-76200000D03*
X60960000Y-78740000D03*
X63500000Y-78740000D03*
D17*
X78740000Y-73660000D03*
D18*
X81280000Y-73660000D03*
X78740000Y-76200000D03*
X81280000Y-76200000D03*
X78740000Y-78740000D03*
X81280000Y-78740000D03*
D15*
X161290000Y-86360000D03*
D19*
X161290000Y-88900000D03*
X158750000Y-86360000D03*
X158750000Y-88900000D03*
X156210000Y-86360000D03*
X156210000Y-88900000D03*
X153670000Y-86360000D03*
X153670000Y-88900000D03*
X151130000Y-86360000D03*
X151130000Y-88900000D03*
X148590000Y-86360000D03*
X148590000Y-88900000D03*
X146050000Y-86360000D03*
X146050000Y-88900000D03*
X143510000Y-86360000D03*
X143510000Y-88900000D03*
X140970000Y-86360000D03*
X140970000Y-88900000D03*
X138430000Y-86360000D03*
X138430000Y-88900000D03*
D20*
X106680000Y-55880000D03*
D19*
X106680000Y-58420000D03*
X104140000Y-55880000D03*
X104140000Y-58420000D03*
X101600000Y-55880000D03*
X101600000Y-58420000D03*
X99060000Y-55880000D03*
X99060000Y-58420000D03*
D20*
X106680000Y-76200000D03*
D19*
X106680000Y-78740000D03*
X104140000Y-76200000D03*
X104140000Y-78740000D03*
X101600000Y-76200000D03*
X101600000Y-78740000D03*
X99060000Y-76200000D03*
X99060000Y-78740000D03*
D15*
X125730000Y-119380000D03*
D16*
X125730000Y-121920000D03*
X123190000Y-119380000D03*
X123190000Y-121920000D03*
X120650000Y-119380000D03*
X120650000Y-121920000D03*
X118110000Y-119380000D03*
X118110000Y-121920000D03*
X115570000Y-119380000D03*
X115570000Y-121920000D03*
X113030000Y-119380000D03*
X113030000Y-121920000D03*
X110490000Y-119380000D03*
X110490000Y-121920000D03*
X107950000Y-119380000D03*
X107950000Y-121920000D03*
X105410000Y-119380000D03*
X105410000Y-121920000D03*
X102870000Y-119380000D03*
X102870000Y-121920000D03*
X100330000Y-119380000D03*
X100330000Y-121920000D03*
X97790000Y-119380000D03*
X97790000Y-121920000D03*
D21*
X160020000Y-129540000D03*
D22*
X157480000Y-129540000D03*
X154940000Y-129540000D03*
X152400000Y-129540000D03*
X149860000Y-129540000D03*
X147320000Y-129540000D03*
X144780000Y-129540000D03*
X142240000Y-129540000D03*
X139700000Y-129540000D03*
D21*
X160020000Y-120650000D03*
D22*
X157480000Y-120650000D03*
X154940000Y-120650000D03*
X152400000Y-120650000D03*
X149860000Y-120650000D03*
X147320000Y-120650000D03*
X144780000Y-120650000D03*
X142240000Y-120650000D03*
X139700000Y-120650000D03*
D12*
X71120000Y-93980000D03*
D13*
X71120000Y-91440000D03*
X71120000Y-88900000D03*
D12*
X66040000Y-93980000D03*
D13*
X66040000Y-91440000D03*
X66040000Y-88900000D03*
D12*
X68580000Y-106680000D03*
D13*
X68580000Y-109220000D03*
X68580000Y-111760000D03*
D12*
X60960000Y-93980000D03*
D13*
X60960000Y-91440000D03*
X60960000Y-88900000D03*
D12*
X58420000Y-106680000D03*
D13*
X58420000Y-109220000D03*
X58420000Y-111760000D03*
D11*
X201930000Y-58420000D03*
X204470000Y-58420000D03*
X201930000Y-63500000D03*
X204470000Y-63500000D03*
X201930000Y-68580000D03*
X204470000Y-68580000D03*
X227330000Y-71120000D03*
X224790000Y-71120000D03*
X227330000Y-66040000D03*
X224790000Y-66040000D03*
X227330000Y-60960000D03*
X224790000Y-60960000D03*
X177800000Y-132080000D03*
X175260000Y-132080000D03*
X205740000Y-132080000D03*
X208280000Y-132080000D03*
X66040000Y-73660000D03*
D23*
X76200000Y-73660000D03*
D11*
X66040000Y-76200000D03*
D23*
X76200000Y-76200000D03*
D11*
X66040000Y-78740000D03*
D23*
X76200000Y-78740000D03*
D11*
X66040000Y-121920000D03*
D23*
X76200000Y-121920000D03*
D11*
X168910000Y-128270000D03*
D23*
X179070000Y-128270000D03*
D11*
X168910000Y-125730000D03*
D23*
X179070000Y-125730000D03*
D11*
X201930000Y-137160000D03*
X212090000Y-137160000D03*
X212090000Y-134620000D03*
X201930000Y-134620000D03*
X99060000Y-113030000D03*
X88900000Y-113030000D03*
X88900000Y-53340000D03*
X88900000Y-63500000D03*
X110490000Y-85090000D03*
X100330000Y-85090000D03*
X146050000Y-109220000D03*
X135890000Y-109220000D03*
X146050000Y-106680000D03*
X135890000Y-106680000D03*
D24*
X71120000Y-96520000D03*
D25*
X68580000Y-96520000D03*
X66040000Y-96520000D03*
X63500000Y-96520000D03*
X60960000Y-96520000D03*
X58420000Y-96520000D03*
X55880000Y-96520000D03*
X55880000Y-104140000D03*
X58420000Y-104140000D03*
X60960000Y-104140000D03*
X63500000Y-104140000D03*
X66040000Y-104140000D03*
X68580000Y-104140000D03*
X71120000Y-104140000D03*
D24*
X189230000Y-96520000D03*
D25*
X186690000Y-96520000D03*
X184150000Y-96520000D03*
X181610000Y-96520000D03*
X179070000Y-96520000D03*
X176530000Y-96520000D03*
X173990000Y-96520000D03*
X173990000Y-104140000D03*
X176530000Y-104140000D03*
X179070000Y-104140000D03*
X181610000Y-104140000D03*
X184150000Y-104140000D03*
X186690000Y-104140000D03*
X189230000Y-104140000D03*
D26*
X210820000Y-58420000D03*
D27*
X210820000Y-60960000D03*
X210820000Y-63500000D03*
X210820000Y-66040000D03*
X210820000Y-68580000D03*
X210820000Y-71120000D03*
X210820000Y-73660000D03*
X218440000Y-73660000D03*
X218440000Y-71120000D03*
X218440000Y-68580000D03*
X218440000Y-66040000D03*
X218440000Y-63500000D03*
X218440000Y-60960000D03*
X218440000Y-58420000D03*
D24*
X199390000Y-115570000D03*
D25*
X196850000Y-115570000D03*
X194310000Y-115570000D03*
X191770000Y-115570000D03*
X189230000Y-115570000D03*
X186690000Y-115570000D03*
X184150000Y-115570000D03*
X184150000Y-123190000D03*
X186690000Y-123190000D03*
X189230000Y-123190000D03*
X191770000Y-123190000D03*
X194310000Y-123190000D03*
X196850000Y-123190000D03*
X199390000Y-123190000D03*
D24*
X116840000Y-91440000D03*
D25*
X114300000Y-91440000D03*
X111760000Y-91440000D03*
X109220000Y-91440000D03*
X106680000Y-91440000D03*
X104140000Y-91440000D03*
X101600000Y-91440000D03*
X99060000Y-91440000D03*
X99060000Y-99060000D03*
X101600000Y-99060000D03*
X104140000Y-99060000D03*
X106680000Y-99060000D03*
X109220000Y-99060000D03*
X111760000Y-99060000D03*
X114300000Y-99060000D03*
X116840000Y-99060000D03*
D24*
X116840000Y-63500000D03*
D25*
X114300000Y-63500000D03*
X111760000Y-63500000D03*
X109220000Y-63500000D03*
X106680000Y-63500000D03*
X104140000Y-63500000D03*
X101600000Y-63500000D03*
X99060000Y-63500000D03*
X99060000Y-71120000D03*
X101600000Y-71120000D03*
X104140000Y-71120000D03*
X106680000Y-71120000D03*
X109220000Y-71120000D03*
X111760000Y-71120000D03*
X114300000Y-71120000D03*
X116840000Y-71120000D03*
D24*
X161290000Y-93980000D03*
D25*
X158750000Y-93980000D03*
X156210000Y-93980000D03*
X153670000Y-93980000D03*
X151130000Y-93980000D03*
X148590000Y-93980000D03*
X146050000Y-93980000D03*
X143510000Y-93980000D03*
X143510000Y-101600000D03*
X146050000Y-101600000D03*
X148590000Y-101600000D03*
X151130000Y-101600000D03*
X153670000Y-101600000D03*
X156210000Y-101600000D03*
X158750000Y-101600000D03*
X161290000Y-101600000D03*
D11*
X66040000Y-124460000D03*
D23*
X76200000Y-124460000D03*
D11*
X66040000Y-127000000D03*
D23*
X76200000Y-127000000D03*
D11*
X167005000Y-64135000D03*
D23*
X177165000Y-64135000D03*
D11*
X167005000Y-61595000D03*
D23*
X177165000Y-61595000D03*
D11*
X208280000Y-60960000D03*
X198120000Y-60960000D03*
X208280000Y-66040000D03*
X198120000Y-66040000D03*
X208280000Y-71120000D03*
X198120000Y-71120000D03*
X220980000Y-73660000D03*
X231140000Y-73660000D03*
X220980000Y-68580000D03*
X231140000Y-68580000D03*
X220980000Y-63500000D03*
X231140000Y-63500000D03*
X182245000Y-79375000D03*
X172085000Y-79375000D03*
X172085000Y-81915000D03*
X182245000Y-81915000D03*
X215900000Y-53340000D03*
X213360000Y-53340000D03*
X194310000Y-101600000D03*
X194310000Y-99060000D03*
X179070000Y-120650000D03*
X179070000Y-118110000D03*
X138430000Y-99060000D03*
X138430000Y-96520000D03*
X124460000Y-91440000D03*
X121920000Y-91440000D03*
X49530000Y-101600000D03*
X49530000Y-99060000D03*
X93980000Y-68580000D03*
X93980000Y-66040000D03*
D28*
X228854000Y-89916000D03*
X228854000Y-87376000D03*
X228854000Y-92456000D03*
D29*
X139700000Y-125730000D03*
D19*
X142240000Y-125730000D03*
X144780000Y-125730000D03*
X147320000Y-125730000D03*
X149860000Y-125730000D03*
X152400000Y-125730000D03*
X154940000Y-125730000D03*
X157480000Y-125730000D03*
D29*
X139700000Y-116840000D03*
D19*
X142240000Y-116840000D03*
X144780000Y-116840000D03*
X147320000Y-116840000D03*
X149860000Y-116840000D03*
X152400000Y-116840000D03*
X154940000Y-116840000D03*
X157480000Y-116840000D03*
D11*
X102870000Y-144780000D03*
X92710000Y-144780000D03*
D24*
X118110000Y-127000000D03*
D25*
X115570000Y-127000000D03*
X113030000Y-127000000D03*
X110490000Y-127000000D03*
X107950000Y-127000000D03*
X105410000Y-127000000D03*
X102870000Y-127000000D03*
X100330000Y-127000000D03*
X100330000Y-134620000D03*
X102870000Y-134620000D03*
X105410000Y-134620000D03*
X107950000Y-134620000D03*
X110490000Y-134620000D03*
X113030000Y-134620000D03*
X115570000Y-134620000D03*
X118110000Y-134620000D03*
D11*
X95250000Y-132080000D03*
X95250000Y-129540000D03*
X129540000Y-68580000D03*
X129540000Y-58420000D03*
D13*
X137160000Y-58420000D03*
X142240000Y-58420000D03*
X137160000Y-66040000D03*
X142240000Y-66040000D03*
X137160000Y-71120000D03*
X142240000Y-71120000D03*
X137160000Y-78740000D03*
X142240000Y-78740000D03*
D11*
X142240000Y-53340000D03*
X132080000Y-53340000D03*
D30*
X229600000Y-134620000D03*
X224600000Y-129620000D03*
X224600000Y-139620000D03*
D11*
X187325000Y-73660000D03*
X189865000Y-73660000D03*
X189865000Y-71120000D03*
X181610000Y-129540000D03*
X184150000Y-129540000D03*
X205740000Y-143510000D03*
X205740000Y-140970000D03*
X208280000Y-143510000D03*
X208280000Y-140970000D03*
X172085000Y-76835000D03*
D23*
X182245000Y-76835000D03*
D11*
X172085000Y-74295000D03*
D23*
X182245000Y-74295000D03*
D31*
X196850000Y-130810000D03*
D32*
X194310000Y-130810000D03*
D29*
X92710000Y-102870000D03*
D19*
X95250000Y-102870000D03*
X97790000Y-102870000D03*
X100330000Y-102870000D03*
X102870000Y-102870000D03*
D31*
X102870000Y-139700000D03*
D32*
X105410000Y-139700000D03*
D17*
X200660000Y-83820000D03*
D18*
X200660000Y-86360000D03*
X200660000Y-88900000D03*
X200660000Y-91440000D03*
D29*
X151130000Y-78740000D03*
D19*
X153670000Y-78740000D03*
X156210000Y-78740000D03*
X158750000Y-78740000D03*
D31*
X186690000Y-93980000D03*
D32*
X189230000Y-93980000D03*
D20*
X208280000Y-78740000D03*
D16*
X210820000Y-78740000D03*
X213360000Y-78740000D03*
X215900000Y-78740000D03*
X218440000Y-78740000D03*
X220980000Y-78740000D03*
D31*
X184150000Y-91440000D03*
D32*
X181610000Y-91440000D03*
D29*
X213360000Y-93980000D03*
D19*
X210820000Y-93980000D03*
D33*
X184785000Y-81915000D03*
D34*
X184785000Y-79375000D03*
D31*
X176530000Y-93980000D03*
D32*
X179070000Y-93980000D03*
D31*
X179070000Y-109220000D03*
D32*
X181610000Y-109220000D03*
D31*
X176530000Y-106680000D03*
D32*
X173990000Y-106680000D03*
D33*
X184785000Y-66675000D03*
D34*
X184785000Y-69215000D03*
D31*
X186690000Y-106680000D03*
D32*
X184150000Y-106680000D03*
D29*
X153670000Y-106680000D03*
D19*
X156210000Y-106680000D03*
X158750000Y-106680000D03*
D29*
X114300000Y-144780000D03*
D19*
X116840000Y-144780000D03*
X119380000Y-144780000D03*
X121920000Y-144780000D03*
D17*
X222250000Y-92710000D03*
D18*
X222250000Y-90170000D03*
X222250000Y-87630000D03*
X222250000Y-85090000D03*
D29*
X95250000Y-85090000D03*
D19*
X92710000Y-85090000D03*
X90170000Y-85090000D03*
X87630000Y-85090000D03*
D11*
X167005000Y-59055000D03*
X177165000Y-59055000D03*
X184785000Y-55245000D03*
X174625000Y-55245000D03*
X203200000Y-91440000D03*
D23*
X213360000Y-91440000D03*
D11*
X203200000Y-88900000D03*
D23*
X213360000Y-88900000D03*
D11*
X203200000Y-86360000D03*
D23*
X213360000Y-86360000D03*
D11*
X203200000Y-83820000D03*
D23*
X213360000Y-83820000D03*
D29*
X114300000Y-58420000D03*
D19*
X116840000Y-58420000D03*
X119380000Y-58420000D03*
D29*
X114300000Y-76200000D03*
D19*
X116840000Y-76200000D03*
X119380000Y-76200000D03*
D11*
X215900000Y-83820000D03*
X215900000Y-93980000D03*
X105410000Y-113030000D03*
X115570000Y-113030000D03*
X105410000Y-110490000D03*
X115570000Y-110490000D03*
X99060000Y-110490000D03*
X88900000Y-110490000D03*
X124460000Y-85090000D03*
X114300000Y-85090000D03*
X114300000Y-53340000D03*
X124460000Y-53340000D03*
X146050000Y-111760000D03*
X135890000Y-111760000D03*
D17*
X124460000Y-73660000D03*
D18*
X124460000Y-76200000D03*
X124460000Y-78740000D03*
D17*
X124460000Y-63500000D03*
D18*
X124460000Y-60960000D03*
X124460000Y-58420000D03*
D11*
X134620000Y-142240000D03*
D23*
X144780000Y-142240000D03*
D11*
X134620000Y-139700000D03*
D23*
X144780000Y-139700000D03*
D11*
X134620000Y-137160000D03*
D23*
X144780000Y-137160000D03*
D11*
X134620000Y-134620000D03*
D23*
X144780000Y-134620000D03*
D17*
X132080000Y-134620000D03*
D18*
X132080000Y-137160000D03*
X132080000Y-139700000D03*
X132080000Y-142240000D03*
D17*
X149860000Y-137160000D03*
D18*
X149860000Y-134620000D03*
D11*
X157480000Y-134620000D03*
X157480000Y-144780000D03*
D17*
X132080000Y-83820000D03*
D18*
X132080000Y-86360000D03*
X132080000Y-88900000D03*
X132080000Y-91440000D03*
D29*
X121920000Y-111760000D03*
D19*
X124460000Y-111760000D03*
X127000000Y-111760000D03*
X129540000Y-111760000D03*
D13*
X204470000Y-101600000D03*
X207010000Y-101600000D03*
X204470000Y-107950000D03*
X207010000Y-107950000D03*
D11*
X210820000Y-100330000D03*
X210820000Y-110490000D03*
X213360000Y-110490000D03*
X213360000Y-100330000D03*
D33*
X199390000Y-105410000D03*
D34*
X199390000Y-102870000D03*
D35*
X166370000Y-118110000D03*
D36*
X168910000Y-118110000D03*
X166370000Y-120650000D03*
X168910000Y-120650000D03*
D35*
X173990000Y-118110000D03*
D36*
X176530000Y-118110000D03*
X173990000Y-120650000D03*
X176530000Y-120650000D03*
D37*
X230000000Y-55000000D03*
X230000000Y-145000000D03*
X60000000Y-145000000D03*
X60000000Y-55000000D03*
X150000000Y-145000000D03*
X150000000Y-55000000D03*
D13*
X218440000Y-139700000D03*
X215900000Y-139700000D03*
X218440000Y-132080000D03*
X215900000Y-132080000D03*
X170815000Y-70485000D03*
X170815000Y-67945000D03*
X178435000Y-70485000D03*
X178435000Y-67945000D03*
X43180000Y-99060000D03*
X43180000Y-101600000D03*
D38*
X221060000Y-104180000D03*
X221060000Y-106680000D03*
X221060000Y-109180000D03*
D39*
X228060000Y-101380000D03*
X228060000Y-111980000D03*
D38*
X221060000Y-118150000D03*
X221060000Y-120650000D03*
X221060000Y-123150000D03*
D39*
X228060000Y-115350000D03*
X228060000Y-125950000D03*
D38*
X78660000Y-143470000D03*
X78660000Y-140970000D03*
X78660000Y-138470000D03*
D39*
X71660000Y-146270000D03*
X71660000Y-135670000D03*
D38*
X49450000Y-143470000D03*
X49450000Y-140970000D03*
X49450000Y-138470000D03*
D39*
X42450000Y-146270000D03*
X42450000Y-135670000D03*
D38*
X161845000Y-69175000D03*
X161845000Y-66675000D03*
X161845000Y-64175000D03*
D39*
X154845000Y-71975000D03*
X154845000Y-61375000D03*
D38*
X49450000Y-118070000D03*
X49450000Y-115570000D03*
X49450000Y-113070000D03*
D39*
X42450000Y-120870000D03*
X42450000Y-110270000D03*
D38*
X49450000Y-87590000D03*
X49450000Y-85090000D03*
X49450000Y-82590000D03*
D39*
X42450000Y-90390000D03*
X42450000Y-79790000D03*
D38*
X49450000Y-60920000D03*
X49450000Y-58420000D03*
X49450000Y-55920000D03*
D39*
X42450000Y-63720000D03*
X42450000Y-53120000D03*
D38*
X78660000Y-60920000D03*
X78660000Y-58420000D03*
X78660000Y-55920000D03*
D39*
X71660000Y-63720000D03*
X71660000Y-53120000D03*
D40*
X176490000Y-135970000D03*
X173990000Y-135970000D03*
X171490000Y-135970000D03*
D41*
X179290000Y-142970000D03*
X168690000Y-142970000D03*
M02*
